<?xml version="1.0" standalone="no"?>
<!DOCTYPE svg PUBLIC "-//W3C//DTD SVG 20010904//EN"
 "http://www.w3.org/TR/2001/REC-SVG-20010904/DTD/svg10.dtd">
<svg version="1.0" xmlns="http://www.w3.org/2000/svg"
 width="880.000000pt" height="880.000000pt" viewBox="0 0 880.000000 880.000000"
 preserveAspectRatio="xMidYMid meet">
<metadata>
Created by potrace 1.11, written by Peter Selinger 2001-2013
</metadata>
<g transform="translate(0.000000,880.000000) scale(0.100000,-0.100000)"
fill="#000000" stroke="none">
<path d="M3377 8763 c-4 -3 -57 -7 -119 -9 -137 -4 -250 -11 -300 -18 -21 -3
-55 -8 -75 -11 -53 -8 -102 -16 -127 -21 -11 -2 -34 -6 -51 -9 -177 -29 -456
-116 -668 -207 -146 -62 -324 -154 -389 -199 -14 -11 -29 -19 -32 -19 -19 0
-303 -207 -409 -298 -160 -138 -355 -345 -469 -497 -4 -5 -18 -23 -31 -40 -74
-94 -267 -400 -267 -424 0 -6 -4 -11 -10 -11 -5 0 -10 -9 -10 -19 0 -11 -4
-22 -9 -25 -6 -4 -69 -124 -76 -146 -1 -3 -10 -23 -20 -45 -18 -41 -37 -86
-40 -95 -1 -3 -8 -18 -15 -35 -7 -16 -14 -36 -16 -44 -1 -7 -12 -37 -24 -66
-12 -29 -22 -59 -24 -66 -1 -8 -4 -18 -7 -24 -6 -10 -22 -61 -24 -80 -1 -5 -5
-17 -8 -25 -10 -25 -46 -163 -52 -199 -3 -19 -8 -37 -10 -41 -3 -4 -6 -22 -9
-41 -2 -19 -11 -72 -20 -119 -8 -47 -18 -110 -21 -140 -3 -30 -7 -67 -10 -81
-3 -15 -7 -85 -9 -157 -2 -72 -7 -135 -10 -140 -4 -6 -2 -13 3 -17 7 -4 7 -15
1 -30 -5 -14 -6 -25 -2 -25 4 0 7 -35 8 -78 1 -81 9 -200 19 -267 3 -22 8 -55
10 -72 4 -35 11 -78 21 -128 3 -16 8 -43 10 -60 3 -16 19 -82 35 -145 17 -63
32 -122 34 -130 2 -8 17 -58 35 -110 95 -291 239 -582 414 -839 39 -57 76
-111 81 -119 6 -9 20 -27 33 -41 12 -14 22 -29 22 -32 0 -3 20 -28 45 -55 24
-27 45 -53 45 -58 0 -4 11 -17 25 -28 14 -11 22 -25 18 -31 -3 -7 -3 -9 2 -5
4 4 22 -9 39 -29 17 -20 47 -52 66 -71 19 -19 34 -38 33 -43 -2 -5 3 -8 10 -6
6 1 11 -4 9 -11 -1 -8 1 -11 6 -8 11 6 64 -43 58 -53 -3 -4 1 -8 8 -8 22 0 75
-47 71 -61 -3 -7 -1 -11 4 -7 5 3 16 -2 24 -10 9 -8 20 -15 26 -15 6 0 11 -4
11 -9 0 -6 -10 -8 -21 -6 -12 3 -19 1 -15 -2 4 -4 19 -8 34 -9 14 0 28 -6 30
-13 2 -6 8 -11 13 -11 16 0 59 -43 59 -59 0 -14 2 -14 10 -1 8 12 10 12 16 -3
3 -9 12 -17 18 -17 7 0 22 -9 34 -20 12 -12 22 -17 22 -13 0 4 5 0 11 -9 5
-10 17 -18 24 -18 8 0 15 -4 15 -8 0 -5 12 -14 26 -21 16 -7 24 -17 20 -26 -3
-8 -1 -17 5 -20 5 -4 9 -3 8 2 -3 20 2 23 22 12 18 -9 19 -13 8 -21 -10 -7 -8
-7 9 -3 12 3 22 3 22 -2 0 -4 23 -19 50 -32 28 -14 50 -29 50 -33 0 -4 3 -7 8
-6 4 1 42 -16 84 -37 52 -26 74 -43 68 -50 -6 -7 -3 -11 10 -11 10 0 16 4 13
9 -3 5 3 4 13 -1 55 -29 151 -72 162 -72 6 0 12 -4 12 -8 0 -4 10 -8 22 -9 11
-1 24 -6 27 -10 3 -4 15 -10 26 -12 34 -5 56 -21 48 -34 -5 -9 -3 -9 9 0 19
17 31 5 16 -16 -10 -13 -9 -13 6 1 17 15 22 15 65 1 25 -9 53 -18 61 -20 13
-4 13 -5 0 -13 -8 -6 -10 -10 -5 -10 6 0 16 5 23 12 9 9 12 8 12 -6 0 -14 3
-16 13 -7 8 6 17 8 21 4 3 -4 17 -8 29 -10 38 -5 49 -12 41 -25 -6 -10 -5 -11
8 -1 8 7 17 10 20 7 6 -5 53 -16 76 -17 6 0 12 -3 12 -7 0 -4 11 -6 25 -5 18
2 25 -2 26 -13 0 -10 3 -12 5 -5 5 10 19 10 74 -2 8 -2 15 -4 15 -5 0 -1 18
-3 39 -5 22 -3 43 -10 48 -17 4 -7 8 -8 8 -2 0 6 13 9 30 6 19 -3 27 -8 23
-16 -5 -7 -2 -7 8 1 9 7 20 8 29 3 8 -5 18 -6 23 -3 4 3 18 -3 30 -14 21 -18
21 -18 7 1 -14 17 -13 18 7 12 12 -4 40 -8 62 -9 24 -1 37 -5 34 -12 -3 -5 0
-5 7 2 15 14 42 6 33 -11 -3 -6 -1 -6 8 2 18 16 53 16 43 -1 -6 -9 -5 -9 7 0
13 11 71 9 90 -2 5 -4 9 -1 9 6 0 6 8 3 18 -8 9 -10 14 -14 10 -9 -14 18 -8
27 10 18 9 -5 52 -8 95 -6 58 2 77 -1 74 -10 -3 -6 3 -12 14 -12 12 0 15 4 8
12 -6 8 -5 14 6 18 8 3 15 1 15 -5 0 -6 7 -6 20 1 14 7 20 7 20 0 0 -5 5 -10
11 -10 5 0 8 3 6 8 -3 4 20 8 51 9 32 2 73 5 92 8 19 3 53 8 75 11 22 3 55 9
73 14 23 6 32 5 32 -3 0 -8 4 -7 9 2 5 8 16 11 25 8 8 -3 18 -2 21 3 3 5 14 7
25 5 11 -2 20 1 20 7 0 5 7 8 15 4 8 -3 15 0 15 7 0 8 4 6 10 -3 5 -8 10 -10
10 -3 0 6 13 10 29 9 17 -1 28 1 25 5 -7 12 34 17 47 5 9 -8 10 -8 5 1 -7 13
28 28 44 18 5 -3 10 -2 10 4 0 6 7 7 17 4 10 -4 14 -2 10 4 -4 7 0 10 10 8 10
-1 24 2 31 8 6 5 12 6 12 2 0 -4 7 -2 15 5 12 10 15 10 15 -1 0 -11 2 -12 9
-1 4 7 15 14 23 16 9 1 23 8 31 14 19 16 34 -3 18 -22 -8 -9 -7 -13 3 -13 9 0
13 9 11 24 -2 20 1 24 16 20 10 -3 17 0 16 7 -1 6 4 10 12 8 7 -1 19 3 27 9
11 9 14 8 14 -2 1 -10 3 -9 10 2 9 15 41 29 64 28 5 -1 12 4 15 10 4 6 16 12
26 14 11 2 39 13 62 25 49 25 57 27 48 10 -3 -7 2 -3 11 9 9 13 21 23 26 23 5
0 36 13 70 30 33 16 65 27 71 23 5 -3 7 -1 4 4 -6 10 14 25 36 27 4 1 12 7 16
15 5 7 14 10 20 7 6 -4 11 -2 11 4 0 6 5 8 10 5 6 -3 10 -1 10 4 0 6 5 11 11
11 5 0 8 -4 4 -9 -3 -5 -1 -12 4 -16 6 -3 8 6 5 21 -3 14 -1 23 4 20 5 -3 20
3 32 14 14 12 33 18 51 16 16 -2 26 1 23 6 -3 5 -12 7 -20 4 -22 -8 -17 2 7
15 17 9 24 8 31 -2 6 -10 7 -7 3 9 -9 31 12 29 49 -5 l31 -28 -27 30 c-27 31
-28 31 -8 48 11 9 20 14 20 10 0 -4 7 2 15 13 8 10 15 16 15 12 0 -5 8 0 18
10 62 58 63 58 94 23 15 -17 31 -31 35 -31 5 0 17 -14 28 -30 11 -16 25 -30
32 -30 6 0 15 -9 18 -20 3 -11 13 -20 22 -20 10 0 14 -6 10 -20 -3 -11 -1 -18
3 -15 12 8 41 -6 34 -16 -3 -5 -1 -9 3 -9 20 0 82 -72 77 -88 -4 -12 -3 -13 3
-4 7 9 16 5 38 -18 16 -16 23 -30 16 -30 -7 0 -9 -5 -5 -11 4 -8 9 -7 15 2 7
11 12 8 26 -11 10 -14 17 -28 15 -32 -1 -5 1 -7 6 -5 13 4 62 -40 62 -56 0 -8
-45 -61 -100 -117 -55 -55 -100 -105 -100 -110 0 -5 22 -30 49 -56 27 -27 47
-52 45 -56 -3 -4 0 -8 6 -8 6 0 8 -5 4 -12 -4 -7 -3 -8 5 -4 15 9 53 -32 44
-47 -3 -6 -1 -7 5 -3 7 4 12 2 12 -3 0 -6 3 -10 8 -9 4 1 21 -10 37 -26 17
-16 24 -26 16 -21 -9 5 -12 4 -8 -2 4 -6 20 -16 37 -23 27 -11 35 -21 31 -43
0 -4 5 -7 12 -7 14 0 53 -41 49 -53 -1 -4 2 -6 6 -5 13 5 102 -84 95 -95 -3
-6 -1 -7 6 -3 6 4 14 0 17 -8 3 -9 12 -16 20 -16 8 0 14 -6 14 -14 0 -8 9 -18
20 -21 11 -3 20 -12 20 -20 0 -8 9 -17 20 -20 11 -4 18 -11 15 -16 -4 -5 1 -9
9 -9 19 0 21 -16 4 -24 -9 -4 -8 -5 2 -5 29 2 40 -1 40 -12 0 -5 -4 -8 -9 -4
-5 3 -12 1 -16 -4 -3 -6 6 -8 21 -5 25 5 26 3 13 -12 -10 -13 -10 -16 -1 -10
7 4 20 2 28 -5 12 -10 12 -14 2 -22 -9 -6 -8 -7 5 -3 13 4 29 -5 53 -29 33
-35 44 -52 24 -40 -16 10 -11 -1 7 -16 11 -10 14 -10 9 -1 -11 18 2 15 26 -8
12 -11 18 -20 12 -21 -5 0 1 -4 14 -10 18 -7 22 -14 17 -31 -4 -16 -4 -19 3
-9 8 11 22 2 66 -41 31 -30 56 -60 56 -66 0 -7 4 -11 8 -10 12 4 92 -77 92
-92 0 -7 3 -11 6 -8 7 8 115 -92 109 -101 -2 -4 5 -7 15 -7 10 0 16 4 13 9 -8
13 69 88 85 82 7 -3 10 0 6 6 -7 12 166 190 178 183 4 -3 8 1 8 9 0 18 44 59
54 50 4 -5 6 -1 4 7 -1 8 3 14 10 12 6 -1 12 5 12 13 0 9 7 18 15 21 8 4 12
11 8 17 -4 7 0 8 13 3 10 -4 15 -4 11 0 -9 10 42 64 60 64 8 0 12 4 9 9 -3 5
8 22 24 39 18 19 31 26 34 19 3 -8 5 -6 6 3 1 15 33 60 43 60 2 0 3 -14 2 -30
-1 -17 0 -28 4 -25 3 4 6 21 6 38 1 21 5 31 14 29 7 -1 10 2 7 7 -7 11 18 33
28 24 4 -4 4 0 1 8 -4 10 3 20 20 29 14 7 25 20 25 27 0 8 5 11 10 8 6 -3 10
0 10 7 0 18 38 40 53 31 8 -5 8 -2 -1 9 -10 12 -10 18 -1 23 6 4 15 1 21 -6 7
-12 9 -11 7 1 -4 35 0 43 16 30 12 -10 13 -8 10 10 -3 16 0 20 10 16 8 -3 14
0 12 6 -1 6 9 17 23 25 14 7 19 13 10 13 -13 0 -13 2 0 9 8 6 18 7 24 4 5 -3
6 -1 2 6 -8 13 32 61 52 61 6 0 12 6 12 14 0 17 27 29 43 20 9 -5 9 -4 1 5 -9
10 -2 22 28 52 22 21 38 44 36 49 -2 5 -202 212 -446 459 -401 407 -449 452
-508 480 -36 17 -73 31 -84 31 -10 0 -21 4 -24 8 -7 12 -176 12 -222 1 -96
-24 -73 -38 -295 187 -112 113 -224 226 -249 251 -28 28 -40 47 -32 50 6 2 12
10 12 17 0 7 13 28 30 47 45 52 46 53 48 64 1 6 7 17 14 25 7 8 19 28 27 43 8
15 21 27 28 27 8 0 12 4 9 9 -9 14 5 42 17 34 6 -4 8 0 4 10 -7 19 9 33 17 15
3 -7 3 -3 0 10 -6 23 4 29 24 12 9 -7 9 -7 2 2 -14 17 -12 44 5 58 8 7 12 16
9 21 -3 5 0 9 5 9 6 0 11 5 11 12 0 7 10 21 23 33 13 11 17 16 10 11 -18 -12
-17 8 1 24 8 6 16 24 18 38 2 17 9 27 20 27 9 0 20 4 25 9 4 5 3 6 -4 2 -22
-12 -15 21 19 92 17 37 33 73 34 79 4 25 29 73 37 73 5 0 6 4 3 9 -3 5 1 25 9
44 8 19 11 37 8 41 -4 3 -1 6 6 6 7 0 11 6 8 14 -9 22 5 27 21 8 10 -12 10
-10 -2 10 -12 21 -13 27 -2 31 8 3 20 0 27 -6 11 -10 11 -9 0 5 -7 10 -17 15
-22 12 -5 -3 -6 2 -3 10 3 9 9 14 13 11 4 -2 5 10 3 27 -3 18 -1 28 5 25 6 -4
10 9 11 30 1 20 5 39 10 42 4 3 9 19 10 35 1 16 6 34 10 40 5 6 8 18 7 26 0 8
6 21 15 28 8 8 10 11 3 8 -7 -4 -11 1 -10 14 1 22 8 25 23 10 7 -7 11 -6 11 4
0 8 -3 15 -6 14 -19 -2 -22 4 -10 19 8 9 9 14 3 10 -7 -4 -10 2 -6 18 2 14 8
23 12 20 5 -3 6 9 3 26 -3 24 -2 29 9 23 10 -6 11 -5 1 8 -7 8 -10 18 -6 22 4
4 8 19 8 34 3 59 18 137 29 144 8 6 8 8 -1 8 -7 0 -10 10 -7 26 6 36 13 111
14 157 0 21 4 36 9 33 5 -3 15 2 22 12 13 15 12 16 -3 4 -9 -7 -18 -9 -21 -5
-7 12 -2 46 8 62 5 9 4 12 -2 8 -7 -4 -10 5 -9 23 0 17 5 30 11 30 5 0 3 5 -5
10 -13 9 -13 10 0 10 13 0 13 1 0 10 -13 9 -13 10 0 10 13 0 13 1 0 10 -11 7
-11 10 -2 10 8 0 10 5 5 13 -11 18 -10 91 2 99 6 5 6 8 -2 8 -7 0 -13 6 -13
14 0 8 6 17 13 19 9 4 8 6 -2 6 -11 1 -10 6 5 23 13 16 14 19 2 10 -11 -9 -18
-10 -23 -2 -3 5 -1 10 6 10 8 0 8 4 2 13 -8 9 -10 63 -4 86 1 2 11 -4 24 -15
22 -19 22 -19 5 1 -9 11 -17 24 -16 28 0 5 -3 12 -7 15 -4 4 -5 2 -3 -3 2 -6
-2 -10 -7 -10 -6 0 -10 24 -10 53 0 28 -2 52 -5 52 -3 0 -5 17 -4 37 0 21 -3
40 -7 43 -4 3 -9 23 -11 46 -3 23 -8 46 -12 53 -4 6 -1 11 6 11 9 0 9 3 -2 10
-12 8 -13 13 -2 30 9 15 9 19 0 18 -7 -2 -13 3 -14 10 -1 6 -2 13 -4 15 -3 4
-10 42 -12 74 -2 18 -7 33 -12 33 -5 0 -3 7 4 15 11 13 10 14 -5 9 -13 -5 -16
-4 -11 5 4 6 3 17 -2 24 -5 7 -9 19 -9 27 -1 8 -4 23 -8 33 -6 14 -3 16 11 12
12 -4 11 -1 -3 6 -20 10 -29 33 -24 62 0 4 -4 7 -9 7 -6 0 -10 14 -10 30 0 17
-5 30 -11 30 -5 0 -8 4 -4 9 3 5 0 13 -6 16 -5 4 -8 13 -5 21 3 8 2 14 -2 14
-9 0 -33 67 -35 97 0 12 -5 19 -9 17 -7 -5 -12 18 -9 39 0 4 -4 7 -10 7 -5 0
-7 5 -4 10 3 6 1 10 -5 10 -7 0 -10 7 -6 15 3 8 0 18 -7 22 -15 10 -43 58 -28
49 7 -4 8 -1 5 8 -3 9 -10 16 -15 16 -5 0 -9 12 -9 27 0 14 -3 24 -6 20 -4 -3
-25 31 -48 76 -58 113 -162 282 -193 315 -7 7 -13 19 -13 27 0 7 -4 15 -8 17
-4 2 -23 26 -42 53 -19 28 -43 57 -52 66 -10 9 -18 19 -18 23 0 4 -24 35 -53
69 -29 34 -64 75 -77 91 -32 38 -252 260 -305 307 -128 113 -325 258 -483 353
-122 73 -351 191 -412 211 -3 1 -16 6 -30 12 -165 71 -474 166 -578 179 -19 3
-38 7 -42 9 -5 3 -32 8 -62 11 -29 3 -56 8 -59 10 -21 12 -231 33 -396 38 -62
3 -116 7 -121 10 -5 3 -12 3 -15 -1z m-27 -674 c0 -6 -4 -8 -8 -5 -5 3 -9 -2
-9 -11 0 -13 4 -12 18 5 10 13 24 20 32 16 8 -3 18 -1 21 5 4 5 18 6 34 2 15
-4 40 -6 56 -4 19 3 33 -2 42 -14 12 -16 13 -16 8 -1 -5 14 -1 16 18 12 12 -3
38 -5 56 -5 20 1 32 -3 32 -11 0 -9 3 -10 8 -2 7 11 42 15 42 5 0 -3 19 -7 43
-9 43 -2 102 -10 102 -12 0 -3 39 -9 68 -12 19 -2 26 -7 22 -17 -4 -10 -2 -11
7 -4 14 11 81 5 74 -6 -3 -4 14 -8 36 -8 23 -1 46 -7 52 -13 5 -5 17 -10 25
-10 31 0 91 -21 86 -30 -3 -5 0 -12 6 -16 8 -4 9 -3 5 4 -8 13 -1 14 31 6 13
-4 21 -10 18 -14 -3 -5 0 -12 6 -16 8 -4 9 -3 5 4 -9 14 13 15 34 2 12 -8 12
-10 1 -10 -8 0 -11 -3 -8 -6 4 -4 13 -2 20 4 19 16 30 3 14 -17 -10 -14 -10
-14 4 -4 12 10 24 10 50 1 19 -6 37 -15 40 -20 3 -6 10 -10 15 -11 5 -1 8 -4
7 -7 -1 -3 10 -6 24 -7 14 0 28 -5 32 -10 3 -4 15 -10 26 -11 11 -2 22 -7 25
-11 3 -3 28 -17 55 -31 28 -14 52 -27 55 -30 3 -4 20 -12 38 -19 24 -10 30
-17 22 -26 -8 -9 -4 -11 15 -7 15 2 25 0 25 -7 0 -6 7 -11 15 -11 8 0 15 -5
15 -11 0 -5 5 -7 12 -3 8 5 9 2 5 -10 -4 -9 -3 -14 2 -11 14 8 61 -16 61 -32
0 -7 3 -12 8 -11 15 4 82 -45 83 -60 0 -10 3 -12 5 -5 4 8 18 0 40 -22 19 -19
34 -32 34 -29 0 4 41 -31 103 -88 17 -16 34 -28 38 -28 5 0 9 -7 9 -15 0 -8 6
-15 14 -15 13 0 28 -22 30 -44 1 -5 8 -11 16 -13 13 -4 13 -3 0 7 -13 10 -13
11 0 7 8 -2 14 -11 14 -20 -1 -9 1 -15 5 -13 11 7 93 -83 86 -94 -4 -6 -1 -9
7 -8 7 2 12 -3 10 -9 -1 -7 3 -13 9 -13 6 0 17 -7 25 -15 9 -8 13 -15 9 -15
-3 0 6 -12 20 -26 14 -14 23 -30 19 -35 -3 -5 0 -8 6 -7 6 2 42 -42 80 -97 38
-55 72 -105 77 -111 32 -41 179 -332 212 -419 13 -33 27 -69 33 -80 5 -12 10
-27 12 -35 2 -8 6 -22 9 -30 6 -16 29 -89 33 -105 2 -5 12 -44 23 -85 12 -41
25 -100 31 -130 10 -55 15 -83 25 -130 7 -39 16 -110 22 -170 7 -82 11 -460 4
-460 -3 0 -6 -24 -7 -53 -1 -57 -14 -162 -30 -241 -2 -11 -7 -34 -10 -51 -3
-16 -12 -57 -21 -90 -8 -33 -16 -64 -17 -70 -2 -5 -9 -30 -16 -55 -8 -25 -14
-47 -15 -50 -6 -26 -40 -118 -48 -127 -5 -7 -7 -13 -4 -13 10 0 -101 -249
-143 -320 -90 -155 -116 -197 -126 -208 -7 -6 -16 -21 -19 -32 -3 -11 -11 -20
-16 -20 -5 0 -9 -5 -9 -11 0 -11 -131 -180 -184 -237 -154 -167 -281 -283
-431 -395 -27 -20 -54 -40 -60 -45 -9 -7 -68 -45 -163 -104 -15 -9 -58 -33
-97 -54 -38 -20 -86 -46 -105 -58 -19 -11 -37 -20 -40 -20 -3 1 -29 -9 -59
-22 -119 -53 -353 -132 -444 -150 -194 -38 -262 -48 -329 -49 -27 0 -48 -3
-48 -6 0 -7 -364 -3 -455 5 -69 6 -236 30 -285 41 -14 3 -38 8 -55 11 -61 11
-161 36 -181 46 -11 5 -31 11 -45 13 -13 1 -51 13 -84 25 -33 12 -71 24 -85
26 -13 3 -27 8 -30 12 -3 4 -23 13 -45 21 -46 16 -272 127 -325 159 -19 12
-50 29 -67 39 -18 9 -33 20 -33 25 0 4 -4 8 -10 8 -13 0 -134 86 -230 164 -72
58 -259 240 -329 320 -82 94 -221 291 -281 401 -18 33 -40 70 -48 82 -8 13
-10 23 -6 23 5 0 1 5 -8 11 -10 5 -18 15 -18 22 0 7 -9 29 -19 49 -11 19 -17
39 -14 42 4 3 1 6 -5 6 -7 0 -12 5 -12 10 0 6 -10 32 -21 58 -43 95 -49 110
-49 119 0 4 -7 21 -15 37 -9 16 -13 36 -11 43 3 7 1 13 -4 13 -5 0 -6 7 -3 17
4 11 3 14 -5 9 -16 -10 -15 6 1 23 10 11 9 13 -1 7 -6 -4 -12 -2 -12 3 0 20
-2 26 -11 37 -5 6 -10 23 -11 38 -1 14 -6 26 -11 26 -5 0 -3 8 4 17 8 9 9 14
3 10 -7 -4 -14 1 -17 13 -3 10 0 21 7 24 6 2 4 5 -4 5 -9 1 -16 10 -17 21 -1
11 2 18 8 15 15 -10 10 7 -5 19 -8 6 -17 27 -19 46 -3 19 -9 50 -13 69 -6 28
-4 33 7 27 10 -6 10 -4 -1 6 -18 16 -19 21 -22 92 -1 30 -5 53 -8 51 -3 -2 -5
20 -5 48 0 29 -3 58 -8 65 -6 7 -5 12 1 12 7 0 8 10 3 28 -5 15 -4 37 0 50 5
13 5 21 1 18 -4 -2 -8 24 -7 59 0 35 4 61 9 57 5 -3 6 1 1 9 -10 16 -13 79 -4
79 3 0 4 12 1 26 -3 16 -1 25 5 21 5 -3 10 0 10 8 0 8 -4 12 -8 9 -12 -7 -6
60 6 68 6 5 5 8 -2 8 -9 0 -10 7 -2 27 5 14 8 32 5 40 -3 8 2 13 12 13 13 0
14 2 4 9 -8 5 -11 18 -7 37 4 16 8 40 10 54 15 102 17 110 28 104 9 -5 9 -4 0
6 -8 9 -9 19 -2 32 5 10 7 18 3 18 -4 0 1 10 12 22 10 12 13 18 5 13 -10 -6
-11 -2 -6 16 4 13 12 26 16 27 5 2 7 8 4 12 -3 5 1 28 9 51 8 24 13 46 10 51
-3 4 3 8 13 9 10 0 13 3 6 6 -10 4 -10 9 -1 26 11 20 15 37 20 75 1 7 6 11 13
9 6 -3 12 5 12 17 2 26 6 43 23 81 7 17 13 33 12 38 -1 4 3 7 9 7 6 0 8 7 5
16 -5 12 -1 14 17 9 15 -4 18 -4 8 3 -16 12 -1 69 18 64 6 -1 10 1 10 5 -4 22
3 43 17 57 8 9 13 16 9 16 -3 0 4 18 16 40 12 21 27 36 32 33 5 -3 7 0 5 8 -8
23 10 49 30 43 13 -5 14 -4 3 4 -11 8 -8 18 18 56 17 26 31 51 31 55 0 4 9 16
20 26 11 10 17 22 13 28 -4 6 0 8 10 4 9 -3 16 -3 16 1 -3 17 2 30 21 50 12
12 18 22 15 22 -3 0 5 11 17 24 13 13 26 21 30 19 4 -2 5 4 1 13 -5 14 -3 16
11 11 10 -4 15 -3 11 4 -8 11 41 79 57 79 7 0 7 -4 -1 -13 -8 -10 -7 -14 4
-14 8 0 13 3 10 5 -3 3 1 12 8 20 9 13 9 14 0 8 -21 -12 -15 9 11 37 13 14 27
23 30 20 3 -4 6 1 6 9 0 19 24 30 37 17 6 -6 10 -4 10 5 0 8 -4 13 -9 10 -4
-3 -8 -1 -8 5 0 18 21 23 38 9 15 -12 16 -11 3 5 -12 15 -8 22 38 67 28 28 57
50 63 50 7 0 6 -5 -2 -15 -20 -24 -5 -18 16 7 10 12 13 18 7 14 -7 -4 -13 -3
-13 2 0 17 78 72 94 66 9 -3 16 -1 16 6 0 6 -5 8 -10 5 -6 -3 -10 -1 -10 4 0
6 5 11 10 11 6 0 19 8 30 18 11 9 29 25 40 35 11 9 24 17 30 17 5 0 18 9 29
21 11 12 24 18 30 14 7 -3 11 -3 10 2 -4 22 3 24 23 7 21 -18 22 -18 8 0 -13
16 -12 20 4 32 11 7 23 11 27 8 5 -3 9 2 9 10 0 9 6 16 13 16 7 0 30 12 51 26
21 15 36 22 32 15 -4 -6 -2 -11 3 -11 6 0 11 6 11 13 0 18 56 47 69 36 6 -5 9
-6 6 -3 -3 4 0 13 6 21 10 11 15 11 27 1 10 -8 13 -9 9 -1 -4 6 7 19 28 32 19
11 35 16 35 11 0 -6 10 0 21 11 17 17 23 19 30 8 7 -12 9 -11 9 1 0 12 52 38
110 55 3 1 23 10 45 19 22 10 54 19 72 19 17 1 30 4 27 8 -5 9 56 30 67 23 5
-3 9 0 9 6 0 6 5 8 10 5 6 -4 17 -2 25 5 7 6 30 12 49 13 20 1 36 5 36 10 0 4
4 7 9 7 6 0 8 -8 6 -18 -2 -11 3 -19 11 -19 9 0 11 4 4 12 -13 15 8 34 33 30
9 -2 17 1 17 7 0 6 8 2 18 -9 9 -10 13 -13 8 -6 -12 18 -6 22 37 25 20 2 37 6
37 9 0 4 14 5 30 4 17 -1 30 2 30 9 0 6 4 4 9 -4 6 -8 7 -18 4 -24 -3 -5 -1
-6 5 -2 6 4 8 14 5 22 -5 14 -3 15 17 4 15 -8 20 -8 16 -1 -10 15 7 14 23 -1
10 -11 12 -10 9 1 -2 10 9 15 40 16 26 2 42 -2 42 -9 0 -6 5 -4 9 4 11 19 87
20 83 1 -1 -7 2 -10 8 -6 6 3 8 11 4 16 -3 6 9 8 30 6 20 -3 39 0 42 5 6 10
24 1 24 -13z"/>
<path d="M3426 8082 c-3 -5 1 -9 9 -9 8 0 12 4 9 9 -3 4 -7 8 -9 8 -2 0 -6 -4
-9 -8z"/>
<path d="M3469 8063 c-13 -16 -12 -17 4 -4 9 7 17 15 17 17 0 8 -8 3 -21 -13z"/>
<path d="M3391 8053 c7 -12 15 -20 18 -17 3 2 -3 12 -13 22 -17 16 -18 16 -5
-5z"/>
<path d="M3174 8040 c0 -13 4 -16 10 -10 7 7 7 13 0 20 -6 6 -10 3 -10 -10z"/>
<path d="M3533 8045 c0 -8 3 -13 5 -10 3 3 12 -1 21 -7 10 -8 9 -4 -3 10 -23
26 -23 26 -23 7z"/>
<path d="M3695 8050 c-4 -6 -10 -8 -15 -5 -4 3 -14 -3 -21 -13 -12 -15 -12
-16 2 -5 9 7 18 11 21 8 3 -3 11 1 18 10 7 8 10 15 7 15 -3 0 -9 -5 -12 -10z"/>
<path d="M2951 8047 c2 -1 13 -9 24 -17 19 -14 19 -14 6 3 -7 9 -18 17 -24 17
-6 0 -8 -1 -6 -3z"/>
<path d="M3036 8041 c-3 -5 2 -15 12 -22 15 -12 16 -12 5 2 -7 9 -10 19 -6 22
3 4 4 7 0 7 -3 0 -8 -4 -11 -9z"/>
<path d="M3081 8036 c-9 -11 -9 -16 1 -22 7 -4 10 -4 6 1 -4 4 -3 14 3 22 6 7
9 13 6 13 -2 0 -10 -6 -16 -14z"/>
<path d="M3313 8033 c0 -11 7 -20 14 -20 10 0 10 4 1 16 -7 9 -13 18 -15 20
-1 2 -1 -5 0 -16z"/>
<path d="M3351 8047 c2 -1 13 -9 24 -17 19 -14 19 -14 6 3 -7 9 -18 17 -24 17
-6 0 -8 -1 -6 -3z"/>
<path d="M3711 8027 c-13 -21 -12 -21 5 -5 10 10 16 20 13 22 -3 3 -11 -5 -18
-17z"/>
<path d="M3470 8036 c0 -2 8 -10 18 -17 15 -13 16 -12 3 4 -13 16 -21 21 -21
13z"/>
<path d="M2919 8013 c-13 -16 -12 -17 4 -4 9 7 17 15 17 17 0 8 -8 3 -21 -13z"/>
<path d="M3825 8020 c-3 -6 1 -7 9 -4 18 7 21 14 7 14 -6 0 -13 -4 -16 -10z"/>
<path d="M3013 8007 c0 -8 6 -14 14 -14 9 0 10 4 2 14 -6 7 -12 13 -14 13 -1
0 -2 -6 -2 -13z"/>
<path d="M3533 8006 c0 -15 22 -15 34 0 4 5 4 6 -1 2 -5 -4 -14 -3 -21 2 -8 7
-12 5 -12 -4z"/>
<path d="M3675 8010 c-4 -6 -10 -8 -14 -6 -4 3 -8 -1 -8 -9 0 -13 4 -12 19 2
18 16 22 23 14 23 -3 0 -8 -5 -11 -10z"/>
<path d="M2975 8001 c-3 -5 -2 -12 3 -15 5 -3 9 1 9 9 0 17 -3 19 -12 6z"/>
<path d="M3366 8002 c-3 -5 1 -9 9 -9 8 0 12 4 9 9 -3 4 -7 8 -9 8 -2 0 -6 -4
-9 -8z"/>
<path d="M3840 8006 c0 -2 8 -10 18 -17 15 -13 16 -12 3 4 -13 16 -21 21 -21
13z"/>
<path d="M3897 7991 c-10 -14 -10 -14 4 -4 9 7 18 10 21 7 3 -3 8 -1 12 4 9
16 -24 9 -37 -7z"/>
<path d="M3989 7997 c6 -8 7 -18 3 -22 -4 -5 -1 -5 6 -1 10 6 10 11 1 22 -6 8
-14 14 -16 14 -3 0 0 -6 6 -13z"/>
<path d="M2790 7996 c0 -2 8 -10 18 -17 15 -13 16 -12 3 4 -13 16 -21 21 -21
13z"/>
<path d="M3756 7978 c3 -5 10 -6 15 -3 13 9 11 12 -6 12 -8 0 -12 -4 -9 -9z"/>
<path d="M2590 7976 c0 -2 8 -10 18 -17 15 -13 16 -12 3 4 -13 16 -21 21 -21
13z"/>
<path d="M2770 7976 c0 -2 8 -10 18 -17 15 -13 16 -12 3 4 -13 16 -21 21 -21
13z"/>
<path d="M2846 7965 c-18 -14 -18 -14 1 -12 11 0 20 7 20 14 0 7 -1 13 -1 13
-1 0 -9 -7 -20 -15z"/>
<path d="M2953 7965 c0 -8 4 -12 9 -9 5 3 6 10 3 15 -9 13 -12 11 -12 -6z"/>
<path d="M3016 7967 c3 -10 9 -15 12 -12 3 3 0 11 -7 18 -10 9 -11 8 -5 -6z"/>
<path d="M3056 7967 c3 -10 9 -15 12 -12 3 3 0 11 -7 18 -10 9 -11 8 -5 -6z"/>
<path d="M4134 7960 c0 -13 4 -16 10 -10 7 7 7 13 0 20 -6 6 -10 3 -10 -10z"/>
<path d="M2560 7966 c0 -2 8 -10 18 -17 15 -13 16 -12 3 4 -13 16 -21 21 -21
13z"/>
<path d="M2986 7957 c3 -10 9 -15 12 -12 3 3 0 11 -7 18 -10 9 -11 8 -5 -6z"/>
<path d="M4014 7953 c1 -7 6 -16 10 -20 4 -4 6 -1 4 7 -1 8 3 14 10 13 6 -2
12 1 12 6 0 6 -8 9 -19 8 -10 0 -18 -7 -17 -14z"/>
<path d="M2616 7927 c3 -10 9 -15 12 -12 3 3 0 11 -7 18 -10 9 -11 8 -5 -6z"/>
<path d="M2813 7925 c0 -8 4 -12 9 -9 5 3 6 10 3 15 -9 13 -12 11 -12 -6z"/>
<path d="M2510 7919 c0 -5 5 -7 10 -4 6 3 10 8 10 11 0 2 -4 4 -10 4 -5 0 -10
-5 -10 -11z"/>
<path d="M2659 7913 c-12 -16 -12 -17 2 -6 9 7 19 10 22 6 4 -3 7 -1 7 5 0 17
-16 15 -31 -5z"/>
<path d="M2776 7918 c3 -5 10 -6 15 -3 13 9 11 12 -6 12 -8 0 -12 -4 -9 -9z"/>
<path d="M2430 7916 c0 -2 8 -10 18 -17 15 -13 16 -12 3 4 -13 16 -21 21 -21
13z"/>
<path d="M4239 7918 c-5 -18 -6 -38 -1 -34 7 8 12 36 6 36 -2 0 -4 -1 -5 -2z"/>
<path d="M2550 7906 c0 -2 7 -7 16 -10 8 -3 12 -2 9 4 -6 10 -25 14 -25 6z"/>
<path d="M2746 7898 c3 -5 10 -6 15 -3 13 9 11 12 -6 12 -8 0 -12 -4 -9 -9z"/>
<path d="M2366 7885 c-18 -14 -18 -14 1 -12 11 0 20 7 20 14 0 7 -1 13 -1 13
-1 0 -9 -7 -20 -15z"/>
<path d="M2422 7884 c10 -10 20 -16 22 -13 3 3 -5 11 -17 18 -21 13 -21 12 -5
-5z"/>
<path d="M2490 7896 c0 -2 8 -10 18 -17 15 -13 16 -12 3 4 -13 16 -21 21 -21
13z"/>
<path d="M2606 7885 c-18 -14 -18 -14 1 -12 11 0 20 7 20 14 0 7 -1 13 -1 13
-1 0 -9 -7 -20 -15z"/>
<path d="M2675 7891 c-3 -5 -2 -12 3 -15 5 -3 9 1 9 9 0 17 -3 19 -12 6z"/>
<path d="M2539 7873 c-13 -16 -12 -17 4 -4 9 7 17 15 17 17 0 8 -8 3 -21 -13z"/>
<path d="M4390 7880 c0 -5 5 -10 11 -10 5 0 7 5 4 10 -3 6 -8 10 -11 10 -2 0
-4 -4 -4 -10z"/>
<path d="M2330 7856 c0 -2 8 -10 18 -17 15 -13 16 -12 3 4 -13 16 -21 21 -21
13z"/>
<path d="M2439 7833 c-17 -20 -18 -23 -3 -10 11 9 23 15 26 12 2 -3 5 2 5 10
0 19 1 20 -28 -12z"/>
<path d="M2256 7833 c-6 -14 -5 -15 5 -6 7 7 10 15 7 18 -3 3 -9 -2 -12 -12z"/>
<path d="M2383 7802 c10 -10 14 -22 10 -27 -5 -4 -2 -5 5 -1 11 6 10 12 -4 27
-9 10 -19 19 -22 19 -3 0 2 -8 11 -18z"/>
<path d="M4529 7803 c-13 -16 -12 -17 4 -4 9 7 17 15 17 17 0 8 -8 3 -21 -13z"/>
<path d="M2253 7793 c0 -10 4 -10 16 -1 9 7 18 13 20 15 2 1 -5 1 -16 0 -11 0
-20 -7 -20 -14z"/>
<path d="M4446 7798 c3 -5 10 -6 15 -3 13 9 11 12 -6 12 -8 0 -12 -4 -9 -9z"/>
<path d="M4480 7806 c0 -2 8 -10 18 -17 15 -13 16 -12 3 4 -13 16 -21 21 -21
13z"/>
<path d="M3276 7793 c-1 -1 -38 -5 -81 -8 -117 -7 -168 -14 -177 -23 -5 -5
-10 -22 -12 -38 -3 -16 -7 -45 -11 -64 -3 -19 -8 -46 -10 -60 -25 -166 -40
-235 -50 -235 -22 -2 -120 -20 -130 -25 -3 -1 -8 -3 -12 -4 -45 -11 -141 -44
-197 -67 -73 -31 -72 -31 -122 16 -81 78 -228 211 -236 214 -9 3 -51 -15 -73
-32 -5 -4 -39 -26 -75 -50 -36 -23 -66 -45 -68 -49 -2 -5 -10 -8 -17 -8 -7 0
-15 -3 -17 -7 -1 -5 -29 -27 -60 -50 -31 -24 -76 -60 -99 -81 l-41 -39 47
-109 c63 -143 77 -178 77 -184 0 -3 7 -14 14 -25 21 -29 18 -36 -34 -90 -70
-73 -139 -160 -189 -238 -24 -37 -47 -66 -52 -63 -5 3 -26 8 -47 11 -22 3 -61
10 -89 15 -27 6 -86 17 -130 25 -44 9 -87 18 -95 20 -11 3 -28 -23 -62 -93
-40 -81 -64 -135 -73 -162 -1 -3 -7 -18 -14 -34 -6 -15 -25 -68 -42 -118 -26
-78 -28 -91 -15 -103 8 -8 17 -15 20 -15 7 0 247 -165 269 -185 10 -8 15 -20
12 -24 -3 -5 -7 -26 -10 -47 -2 -22 -7 -61 -11 -89 -11 -91 -13 -119 -14 -207
-1 -56 -5 -90 -13 -95 -19 -12 -331 -135 -344 -136 -15 0 -12 -43 11 -197 3
-19 8 -46 11 -60 3 -14 8 -41 11 -60 10 -53 11 -59 30 -145 9 -44 19 -82 21
-85 3 -3 86 -6 185 -7 99 -1 190 -4 202 -7 15 -4 25 -18 33 -48 18 -65 76
-184 131 -267 l50 -73 -31 -47 c-17 -25 -35 -50 -39 -56 -21 -26 -108 -157
-108 -163 0 -4 -11 -20 -25 -36 -14 -16 -21 -34 -17 -41 21 -36 110 -136 283
-318 l77 -79 61 36 c34 20 64 36 67 36 3 0 10 5 17 10 21 18 178 109 199 116
11 3 23 2 27 -4 14 -22 201 -140 274 -172 l78 -35 -4 -197 c-3 -159 -1 -198
10 -202 7 -3 14 -5 16 -5 1 0 20 -8 42 -17 64 -27 160 -53 325 -89 141 -30
123 -40 192 104 60 126 75 159 76 174 1 4 8 15 17 23 8 9 15 22 15 29 0 11 6
12 23 6 21 -8 262 -6 322 3 117 17 103 23 153 -66 32 -56 153 -262 155 -264 2
-3 144 34 167 43 8 3 20 7 25 9 34 8 191 68 248 94 l68 31 -6 72 c-3 40 -8 83
-10 97 -3 21 -7 65 -18 208 -2 19 9 30 58 56 73 39 145 84 163 103 7 7 16 13
20 13 4 0 23 15 43 33 83 74 58 75 214 -4 76 -38 145 -75 152 -81 7 -6 13 -7
13 -3 0 4 11 0 25 -9 24 -16 26 -15 62 23 76 78 118 128 195 231 43 58 82 110
86 115 20 26 22 36 12 47 -5 7 -34 43 -63 79 -28 36 -66 83 -84 105 -17 21
-45 56 -61 77 l-30 38 29 57 c16 31 29 63 29 70 0 6 5 12 10 12 6 0 10 7 10
15 0 8 5 23 10 33 6 9 26 64 44 122 26 82 38 105 52 106 11 1 42 5 69 8 28 4
73 9 100 12 108 11 198 25 204 30 3 3 6 10 7 17 1 7 6 37 12 67 19 91 34 258
36 389 l1 63 -125 39 c-69 22 -133 42 -144 44 -33 8 -106 38 -107 44 0 3 -2
33 -4 66 -2 33 -4 60 -5 60 -1 0 -3 14 -5 30 -4 30 -30 161 -39 200 -21 89
-22 85 44 135 18 14 38 30 44 35 6 6 42 35 81 65 123 97 115 87 98 128 -19 45
-30 74 -33 87 -13 49 -186 355 -201 355 -4 0 -35 -7 -68 -16 -34 -8 -69 -17
-78 -19 -10 -3 -66 -16 -125 -31 -117 -29 -114 -30 -152 31 -23 36 -20 33
-150 169 l-104 109 20 61 c11 34 22 68 25 76 3 8 7 20 9 25 3 14 55 176 61
191 5 13 -259 194 -282 194 -8 0 -15 4 -17 8 -4 9 -150 82 -165 82 -6 0 -13
-4 -15 -9 -1 -5 -47 -57 -102 -115 -54 -58 -107 -117 -118 -131 -19 -24 -47
-32 -62 -18 -3 4 -12 8 -19 10 -7 1 -65 18 -129 36 -65 19 -119 32 -122 30 -3
-3 -10 -2 -17 3 -7 4 -27 8 -45 10 -66 4 -73 10 -89 84 -2 8 -15 62 -30 120
-32 128 -37 151 -38 168 0 6 -7 12 -16 13 -9 0 -27 3 -41 5 -27 4 -230 10
-234 7z m-311 -1158 c44 -15 105 -45 135 -65 48 -34 510 -478 510 -492 0 -2
-46 -4 -102 -3 -114 2 -196 -13 -298 -54 l-66 -27 -122 122 c-68 67 -138 129
-158 139 -97 46 -226 2 -288 -99 -27 -42 -32 -141 -11 -191 12 -28 108 -131
320 -342 263 -263 308 -303 345 -313 39 -11 82 -10 132 2 26 6 88 42 88 50 0
21 28 -2 154 -129 l137 -138 -48 -42 c-155 -137 -407 -186 -593 -115 -8 3 -17
6 -21 6 -3 1 -36 17 -75 35 -61 31 -105 71 -391 355 -334 333 -373 380 -420
506 -29 76 -36 121 -36 215 1 117 15 172 73 282 98 184 244 290 450 327 66 12
207 -3 285 -29z m650 -709 c77 -12 203 -67 246 -106 103 -95 658 -655 679
-685 69 -100 100 -216 96 -362 -7 -242 -118 -420 -331 -530 -33 -17 -85 -39
-115 -48 -90 -27 -239 -27 -335 -1 -48 13 -175 77 -175 87 0 5 -6 9 -14 9 -12
0 -467 449 -474 468 -1 4 39 7 88 6 124 -1 263 27 347 71 24 13 29 9 144 -106
133 -133 176 -160 252 -161 119 -2 214 83 224 201 9 99 -3 114 -328 441 -162
162 -305 301 -319 309 -14 8 -52 16 -85 17 -62 3 -109 -11 -159 -47 l-28 -21
-139 140 -138 140 39 36 c22 20 44 36 50 36 5 0 10 4 10 8 0 8 99 61 123 66 7
2 19 6 27 10 61 27 215 37 315 22z"/>
<path d="M4546 7782 c-2 -4 4 -8 14 -8 10 0 16 4 14 8 -3 4 -9 8 -14 8 -5 0
-11 -4 -14 -8z"/>
<path d="M4622 7764 c10 -10 20 -16 22 -13 3 3 -5 11 -17 18 -21 13 -21 12 -5
-5z"/>
<path d="M2313 7745 c0 -8 4 -12 9 -9 5 3 6 10 3 15 -9 13 -12 11 -12 -6z"/>
<path d="M2070 7740 c0 -5 5 -10 11 -10 5 0 7 5 4 10 -3 6 -8 10 -11 10 -2 0
-4 -4 -4 -10z"/>
<path d="M2112 7731 c7 -9 13 -18 15 -20 1 -2 1 5 0 16 0 11 -7 20 -14 20 -10
0 -10 -4 -1 -16z"/>
<path d="M2190 7737 c0 -2 6 -10 14 -16 11 -9 16 -9 22 1 4 7 4 10 -1 6 -4 -4
-14 -3 -22 3 -7 6 -13 9 -13 6z"/>
<path d="M4633 7725 c0 -8 4 -12 9 -9 5 3 6 10 3 15 -9 13 -12 11 -12 -6z"/>
<path d="M2160 7720 c-12 -7 -10 -9 7 -7 12 0 19 5 17 9 -6 10 -6 10 -24 -2z"/>
<path d="M4680 7725 c0 -2 6 -8 13 -14 10 -8 14 -7 14 2 0 8 -6 14 -14 14 -7
0 -13 -1 -13 -2z"/>
<path d="M2091 7687 c-8 -10 -7 -14 2 -14 8 0 14 6 14 14 0 7 -1 13 -2 13 -2
0 -8 -6 -14 -13z"/>
<path d="M4754 7676 c1 -8 5 -18 8 -22 4 -3 5 1 4 10 -1 8 -5 18 -8 22 -4 3
-5 -1 -4 -10z"/>
<path d="M1954 7648 l-19 -23 23 19 c21 18 27 26 19 26 -2 0 -12 -10 -23 -22z"/>
<path d="M2049 7643 c-13 -16 -12 -17 4 -4 9 7 17 15 17 17 0 8 -8 3 -21 -13z"/>
<path d="M1979 7633 c-13 -16 -12 -17 4 -4 14 11 20 11 35 0 15 -13 16 -12 3
4 -7 9 -17 17 -21 17 -4 0 -14 -8 -21 -17z"/>
<path d="M2004 7602 c4 -3 14 -7 22 -8 9 -1 13 0 10 4 -4 3 -14 7 -22 8 -9 1
-13 0 -10 -4z"/>
<path d="M1993 7575 c0 -8 4 -12 9 -9 5 3 6 10 3 15 -9 13 -12 11 -12 -6z"/>
<path d="M1889 7563 c-13 -16 -12 -17 4 -4 9 7 17 15 17 17 0 8 -8 3 -21 -13z"/>
<path d="M1840 7566 c0 -2 8 -10 18 -17 15 -13 16 -12 3 4 -13 16 -21 21 -21
13z"/>
<path d="M1924 7562 c4 -3 14 -7 22 -8 9 -1 13 0 10 4 -4 3 -14 7 -22 8 -9 1
-13 0 -10 -4z"/>
<path d="M4912 7564 c3 -3 12 -6 20 -8 7 -1 20 -5 28 -10 12 -7 13 -6 3 4 -7
8 -23 15 -35 17 -12 2 -19 1 -16 -3z"/>
<path d="M1799 7533 c-13 -16 -12 -17 4 -4 9 7 17 15 17 17 0 8 -8 3 -21 -13z"/>
<path d="M1737 7533 c-10 -9 -9 -23 1 -23 5 0 9 7 9 15 0 17 -1 18 -10 8z"/>
<path d="M1819 7513 c-12 -16 -12 -17 2 -6 9 7 20 9 24 5 5 -4 5 -1 1 6 -9 16
-11 15 -27 -5z"/>
<path d="M4980 7526 c0 -2 8 -10 18 -17 15 -13 16 -12 3 4 -13 16 -21 21 -21
13z"/>
<path d="M1760 7495 c-7 -8 -16 -13 -20 -10 -4 2 -16 -5 -26 -18 -19 -22 -19
-22 2 -4 11 9 23 15 26 12 3 -3 13 4 23 15 10 11 16 20 13 20 -3 0 -11 -7 -18
-15z"/>
<path d="M1793 7473 c0 -11 7 -20 14 -20 10 0 10 4 1 16 -7 9 -13 18 -15 20
-1 2 -1 -5 0 -16z"/>
<path d="M5067 7459 c7 -7 15 -10 18 -7 3 3 -2 9 -12 12 -14 6 -15 5 -6 -5z"/>
<path d="M1750 7416 c7 -7 13 -7 20 0 6 6 3 10 -10 10 -13 0 -16 -4 -10 -10z"/>
<path d="M1663 7405 c17 -19 17 -19 35 0 16 18 16 18 0 6 -15 -11 -21 -11 -35
0 -17 12 -17 12 0 -6z"/>
<path d="M5133 7405 c0 -7 6 -11 14 -8 7 3 13 6 13 8 0 2 -6 5 -13 8 -8 3 -14
-1 -14 -8z"/>
<path d="M1630 7403 c0 -6 8 -17 18 -24 16 -13 16 -13 2 6 -8 11 -16 22 -17
24 -2 2 -3 0 -3 -6z"/>
<path d="M1720 7406 c0 -2 8 -10 18 -17 15 -13 16 -12 3 4 -13 16 -21 21 -21
13z"/>
<path d="M1578 7370 c13 -15 75 -23 66 -9 -2 4 -14 6 -26 4 -12 -3 -29 1 -37
7 -14 10 -14 10 -3 -2z"/>
<path d="M1550 7363 c0 -6 8 -17 18 -24 16 -13 16 -13 2 6 -8 11 -16 22 -17
24 -2 2 -3 0 -3 -6z"/>
<path d="M5176 7358 c3 -5 10 -6 15 -3 13 9 11 12 -6 12 -8 0 -12 -4 -9 -9z"/>
<path d="M1614 7329 c-3 -6 -2 -15 3 -20 5 -5 9 -1 9 11 0 23 -2 24 -12 9z"/>
<path d="M1659 7338 c-5 -18 -6 -38 -1 -34 7 8 12 36 6 36 -2 0 -4 -1 -5 -2z"/>
<path d="M5215 7331 c-3 -5 -2 -12 3 -15 5 -3 9 1 9 9 0 17 -3 19 -12 6z"/>
<path d="M1554 7266 c1 -8 5 -18 8 -22 4 -3 5 1 4 10 -1 8 -5 18 -8 22 -4 3
-5 -1 -4 -10z"/>
<path d="M1586 7258 c3 -5 10 -6 15 -3 13 9 11 12 -6 12 -8 0 -12 -4 -9 -9z"/>
<path d="M1477 7232 c-15 -16 -15 -19 -2 -19 8 0 13 3 10 5 -3 3 0 11 6 19 17
20 5 16 -14 -5z"/>
<path d="M1425 7220 c-3 -6 1 -7 9 -4 18 7 21 14 7 14 -6 0 -13 -4 -16 -10z"/>
<path d="M1519 7193 c-13 -16 -12 -17 4 -4 9 7 17 15 17 17 0 8 -8 3 -21 -13z"/>
<path d="M1393 7167 c-1 -11 -1 -18 0 -16 2 2 8 11 15 20 9 12 9 16 -1 16 -7
0 -14 -9 -14 -20z"/>
<path d="M1463 7162 c10 -10 14 -22 10 -27 -5 -4 -2 -5 5 -1 11 6 10 12 -4 27
-9 10 -19 19 -22 19 -3 0 2 -8 11 -18z"/>
<path d="M1410 7136 c0 -2 8 -10 18 -17 15 -13 16 -12 3 4 -13 16 -21 21 -21
13z"/>
<path d="M1316 7113 c-6 -14 -5 -15 5 -6 7 7 10 15 7 18 -3 3 -9 -2 -12 -12z"/>
<path d="M1390 7116 c0 -2 8 -10 18 -17 15 -13 16 -12 3 4 -13 16 -21 21 -21
13z"/>
<path d="M1326 7085 c-18 -14 -18 -14 1 -12 11 0 20 7 20 14 0 7 -1 13 -1 13
-1 0 -9 -7 -20 -15z"/>
<path d="M1385 7059 c-3 -4 2 -6 10 -5 21 3 28 13 10 13 -9 0 -18 -4 -20 -8z"/>
<path d="M1302 7044 c10 -10 20 -16 22 -13 3 3 -5 11 -17 18 -21 13 -21 12 -5
-5z"/>
<path d="M1276 7013 c-6 -14 -5 -15 5 -6 7 7 10 15 7 18 -3 3 -9 -2 -12 -12z"/>
<path d="M1241 6996 c-9 -11 -9 -16 1 -22 7 -4 10 -4 6 1 -4 4 -3 14 3 22 6 7
9 13 6 13 -2 0 -10 -6 -16 -14z"/>
<path d="M1299 6993 c-13 -17 -13 -17 6 -3 11 8 22 16 24 17 2 2 0 3 -6 3 -6
0 -17 -8 -24 -17z"/>
<path d="M1330 6979 c0 -5 5 -7 10 -4 6 3 10 8 10 11 0 2 -4 4 -10 4 -5 0 -10
-5 -10 -11z"/>
<path d="M1210 6936 c0 -2 8 -10 18 -17 15 -13 16 -12 3 4 -13 16 -21 21 -21
13z"/>
<path d="M1153 6906 l-18 -21 24 20 c13 11 25 19 28 17 3 -2 7 -2 9 1 2 2 -3
4 -11 4 -8 0 -23 -10 -32 -21z"/>
<path d="M1259 6913 c-13 -16 -12 -17 4 -4 16 13 21 21 13 21 -2 0 -10 -8 -17
-17z"/>
<path d="M1194 6855 c0 -13 3 -22 7 -19 8 4 6 30 -2 38 -3 3 -5 -5 -5 -19z"/>
<path d="M1220 6866 c0 -2 8 -10 18 -17 15 -13 16 -12 3 4 -13 16 -21 21 -21
13z"/>
<path d="M1119 6855 c-1 -3 -2 -8 -3 -12 -1 -5 -5 -15 -10 -23 -7 -12 -6 -13
4 -3 13 12 23 43 14 43 -2 0 -5 -2 -5 -5z"/>
<path d="M1107 6779 c7 -9 11 -18 8 -21 -3 -3 3 -11 12 -19 16 -12 17 -12 6 2
-7 9 -11 18 -8 21 3 3 -3 11 -12 19 -16 12 -17 12 -6 -2z"/>
<path d="M1176 6767 c3 -10 9 -15 12 -12 3 3 0 11 -7 18 -10 9 -11 8 -5 -6z"/>
<path d="M1149 6757 c6 -8 7 -18 3 -22 -4 -5 -1 -5 6 -1 10 6 10 11 1 22 -6 8
-14 14 -16 14 -3 0 0 -6 6 -13z"/>
<path d="M1066 6722 c-3 -5 1 -9 9 -9 8 0 12 4 9 9 -3 4 -7 8 -9 8 -2 0 -6 -4
-9 -8z"/>
<path d="M1029 6703 c-13 -16 -12 -17 4 -4 16 13 21 21 13 21 -2 0 -10 -8 -17
-17z"/>
<path d="M1105 6699 c-3 -4 2 -6 10 -5 21 3 28 13 10 13 -9 0 -18 -4 -20 -8z"/>
<path d="M1115 6650 c-4 -6 -10 -8 -15 -5 -5 3 -11 1 -14 -4 -8 -13 22 -7 36
7 7 7 9 12 6 12 -4 0 -10 -5 -13 -10z"/>
<path d="M1025 6620 c-3 -6 1 -7 9 -4 18 7 21 14 7 14 -6 0 -13 -4 -16 -10z"/>
<path d="M1075 6610 c10 -11 20 -20 23 -20 3 0 -3 9 -13 20 -10 11 -20 20 -23
20 -3 0 3 -9 13 -20z"/>
<path d="M1040 6606 c0 -2 8 -10 18 -17 15 -13 16 -12 3 4 -13 16 -21 21 -21
13z"/>
<path d="M1001 6576 c-7 -8 -22 -13 -33 -11 -11 3 -18 1 -14 -2 4 -4 18 -8 32
-9 13 0 22 1 19 4 -3 3 0 11 6 19 6 7 9 13 6 13 -2 0 -10 -6 -16 -14z"/>
<path d="M969 6523 c-13 -16 -12 -17 4 -4 16 13 21 21 13 21 -2 0 -10 -8 -17
-17z"/>
<path d="M955 6489 c-4 -6 -5 -12 -2 -15 2 -3 7 2 10 11 7 17 1 20 -8 4z"/>
<path d="M1010 6460 c0 -5 5 -10 11 -10 5 0 7 5 4 10 -3 6 -8 10 -11 10 -2 0
-4 -4 -4 -10z"/>
<path d="M915 6420 c6 -30 16 -40 12 -12 -2 12 -6 24 -10 28 -3 4 -4 -4 -2
-16z"/>
<path d="M946 6418 c3 -4 9 -8 15 -8 5 0 9 4 9 8 0 5 -7 9 -15 9 -8 0 -12 -4
-9 -9z"/>
<path d="M979 6393 c-13 -16 -12 -17 4 -4 16 13 21 21 13 21 -2 0 -10 -8 -17
-17z"/>
<path d="M915 6370 c-4 -6 -11 -7 -17 -4 -7 4 -8 2 -4 -5 6 -9 11 -9 22 0 14
11 18 19 10 19 -3 0 -8 -5 -11 -10z"/>
<path d="M946 6338 c3 -5 10 -6 15 -3 13 9 11 12 -6 12 -8 0 -12 -4 -9 -9z"/>
<path d="M893 6325 c0 -8 4 -12 9 -9 5 3 6 10 3 15 -9 13 -12 11 -12 -6z"/>
<path d="M856 6322 c-3 -5 1 -9 9 -9 8 0 12 4 9 9 -3 4 -7 8 -9 8 -2 0 -6 -4
-9 -8z"/>
<path d="M863 6285 c17 -19 17 -19 35 0 16 18 16 18 0 6 -15 -11 -21 -11 -35
0 -17 12 -17 12 0 -6z"/>
<path d="M909 6263 c-13 -16 -12 -17 4 -4 16 13 21 21 13 21 -2 0 -10 -8 -17
-17z"/>
<path d="M830 6266 c0 -2 7 -7 16 -10 8 -3 12 -2 9 4 -6 10 -25 14 -25 6z"/>
<path d="M866 6179 c4 -8 30 -6 38 2 3 3 -5 5 -19 5 -13 0 -22 -3 -19 -7z"/>
<path d="M809 6163 c-13 -16 -12 -17 4 -4 16 13 21 21 13 21 -2 0 -10 -8 -17
-17z"/>
<path d="M826 6142 c-2 -4 4 -8 14 -8 10 0 16 4 14 8 -3 4 -9 8 -14 8 -5 0
-11 -4 -14 -8z"/>
<path d="M820 6066 c0 -2 8 -10 18 -17 15 -13 16 -12 3 4 -13 16 -21 21 -21
13z"/>
<path d="M814 6002 c4 -3 14 -7 22 -8 9 -1 13 0 10 4 -4 3 -14 7 -22 8 -9 1
-13 0 -10 -4z"/>
<path d="M813 5967 c0 -8 6 -14 14 -14 9 0 10 4 2 14 -6 7 -12 13 -14 13 -1 0
-2 -6 -2 -13z"/>
<path d="M750 5956 c0 -2 8 -10 18 -17 15 -13 16 -12 3 4 -13 16 -21 21 -21
13z"/>
<path d="M806 5898 c3 -5 10 -6 15 -3 13 9 11 12 -6 12 -8 0 -12 -4 -9 -9z"/>
<path d="M746 5882 c-2 -4 9 -7 25 -7 31 -1 30 7 -1 12 -10 1 -21 -1 -24 -5z"/>
<path d="M787 5819 c7 -7 15 -10 18 -7 3 3 -2 9 -12 12 -14 6 -15 5 -6 -5z"/>
<path d="M753 5792 c-8 -14 -8 -19 1 -19 7 0 13 9 13 19 1 10 1 18 0 18 -1 0
-7 -8 -14 -18z"/>
<path d="M770 5719 c0 -5 5 -7 10 -4 6 3 10 8 10 11 0 2 -4 4 -10 4 -5 0 -10
-5 -10 -11z"/>
<path d="M726 5678 c4 -5 9 -7 12 -4 3 3 15 -2 26 -11 21 -18 21 -18 3 3 -16
20 -52 30 -41 12z"/>
<path d="M733 5647 c0 -7 9 -14 20 -14 11 -1 18 -1 16 0 -2 2 -11 8 -20 15
-12 9 -16 9 -16 -1z"/>
<path d="M710 5546 c0 -2 7 -7 16 -10 8 -3 12 -2 9 4 -6 10 -25 14 -25 6z"/>
<path d="M705 5500 c-3 -6 1 -7 9 -4 18 7 21 14 7 14 -6 0 -13 -4 -16 -10z"/>
<path d="M751 5493 c7 -12 15 -20 18 -17 3 2 -3 12 -13 22 -17 16 -18 16 -5
-5z"/>
<path d="M720 5486 c0 -2 8 -10 18 -17 15 -13 16 -12 3 4 -13 16 -21 21 -21
13z"/>
<path d="M704 5382 c4 -3 14 -7 22 -8 9 -1 13 0 10 4 -4 3 -14 7 -22 8 -9 1
-13 0 -10 -4z"/>
<path d="M709 5297 c6 -8 7 -18 3 -22 -4 -5 -1 -5 6 -1 10 6 10 11 1 22 -6 8
-14 14 -16 14 -3 0 0 -6 6 -13z"/>
<path d="M729 5244 c-11 -14 -24 -52 -14 -42 2 1 3 6 2 9 -1 4 7 16 17 28 11
12 17 21 14 21 -3 0 -12 -7 -19 -16z"/>
<path d="M716 5178 c3 -5 10 -6 15 -3 13 9 11 12 -6 12 -8 0 -12 -4 -9 -9z"/>
<path d="M753 5045 c0 -8 4 -12 9 -9 5 3 6 10 3 15 -9 13 -12 11 -12 -6z"/>
<path d="M755 5009 c-4 -6 -5 -12 -2 -15 2 -3 7 2 10 11 7 17 1 20 -8 4z"/>
<path d="M750 4918 c0 -4 4 -8 9 -8 6 0 12 4 15 8 3 5 -1 9 -9 9 -8 0 -15 -4
-15 -9z"/>
<path d="M751 4874 c0 -11 3 -14 6 -6 3 7 2 16 -1 19 -3 4 -6 -2 -5 -13z"/>
<path d="M6646 6202 c-3 -5 1 -9 9 -9 8 0 12 4 9 9 -3 4 -7 8 -9 8 -2 0 -6 -4
-9 -8z"/>
<path d="M6656 6162 c-3 -5 1 -9 9 -9 8 0 12 4 9 9 -3 4 -7 8 -9 8 -2 0 -6 -4
-9 -8z"/>
<path d="M6690 6020 c0 -5 5 -10 11 -10 5 0 7 5 4 10 -3 6 -8 10 -11 10 -2 0
-4 -4 -4 -10z"/>
<path d="M6680 5966 c0 -2 8 -10 18 -17 15 -13 16 -12 3 4 -13 16 -21 21 -21
13z"/>
<path d="M6706 5898 c3 -5 10 -6 15 -3 13 9 11 12 -6 12 -8 0 -12 -4 -9 -9z"/>
<path d="M6723 5858 c-11 -19 -13 -39 -1 -32 5 3 7 9 4 12 -3 3 -1 11 5 19 6
7 9 13 6 13 -3 0 -9 -6 -14 -12z"/>
<path d="M6704 5782 c4 -3 14 -7 22 -8 9 -1 13 0 10 4 -4 3 -14 7 -22 8 -9 1
-13 0 -10 -4z"/>
<path d="M6710 5666 c0 -2 7 -7 16 -10 8 -3 12 -2 9 4 -6 10 -25 14 -25 6z"/>
<path d="M6760 5535 c-7 -8 -16 -13 -19 -10 -4 2 -8 -2 -8 -10 0 -10 4 -12 12
-5 7 5 15 8 18 5 4 -3 5 -2 2 2 -3 3 0 12 6 20 6 7 9 13 6 13 -2 0 -10 -7 -17
-15z"/>
<path d="M6746 5421 c-3 -4 4 -7 14 -6 27 2 33 10 10 12 -11 1 -22 -2 -24 -6z"/>
<path d="M6750 5357 c0 -2 6 -10 14 -16 11 -9 16 -9 22 1 4 7 4 10 -1 6 -4 -4
-14 -3 -22 3 -7 6 -13 9 -13 6z"/>
<path d="M6720 5166 c0 -2 8 -10 18 -17 15 -13 16 -12 3 4 -13 16 -21 21 -21
13z"/>
<path d="M6751 5107 c-13 -21 -12 -21 5 -5 10 10 16 20 13 22 -3 3 -11 -5 -18
-17z"/>
<path d="M6711 5047 c2 -1 13 -9 24 -17 19 -14 19 -14 6 3 -7 9 -18 17 -24 17
-6 0 -8 -1 -6 -3z"/>
<path d="M6757 4992 c-15 -16 -15 -19 -2 -19 8 0 13 3 10 5 -3 3 0 11 6 19 17
20 5 16 -14 -5z"/>
<path d="M6699 4913 c-13 -16 -12 -17 4 -4 9 7 17 15 17 17 0 8 -8 3 -21 -13z"/>
<path d="M6753 4911 c0 -11 5 -18 9 -15 4 3 5 11 1 19 -7 21 -12 19 -10 -4z"/>
<path d="M6710 4816 c7 -7 13 -7 20 0 6 6 3 10 -10 10 -13 0 -16 -4 -10 -10z"/>
<path d="M6690 4776 c0 -2 8 -10 18 -17 15 -13 16 -12 3 4 -13 16 -21 21 -21
13z"/>
<path d="M6736 4755 c-9 -26 -7 -32 5 -12 6 10 9 21 6 23 -2 3 -7 -2 -11 -11z"/>
<path d="M6699 4673 c-13 -16 -12 -17 4 -4 9 7 17 15 17 17 0 8 -8 3 -21 -13z"/>
<path d="M6673 4627 c-18 -22 -18 -22 2 -6 11 9 28 15 38 14 11 -2 16 -1 13 3
-14 13 -36 9 -53 -11z"/>
<path d="M6689 4603 c-13 -16 -12 -17 4 -4 9 7 17 15 17 17 0 8 -8 3 -21 -13z"/>
<path d="M6675 4530 c-4 -6 -10 -8 -14 -6 -4 3 -13 0 -21 -5 -11 -7 -10 -8 8
-6 20 3 56 27 40 27 -4 0 -10 -5 -13 -10z"/>
<path d="M6630 4476 c0 -2 8 -10 18 -17 15 -13 16 -12 3 4 -13 16 -21 21 -21
13z"/>
<path d="M6625 4440 c10 -11 20 -20 23 -20 3 0 -3 9 -13 20 -10 11 -20 20 -23
20 -3 0 3 -9 13 -20z"/>
<path d="M6624 4382 c4 -3 14 -7 22 -8 9 -1 13 0 10 4 -4 3 -14 7 -22 8 -9 1
-13 0 -10 -4z"/>
<path d="M6614 4326 c1 -8 5 -18 8 -22 4 -3 5 1 4 10 -1 8 -5 18 -8 22 -4 3
-5 -1 -4 -10z"/>
<path d="M6573 4273 c0 -10 4 -10 16 -1 9 7 18 13 20 15 2 1 -5 1 -16 0 -11 0
-20 -7 -20 -14z"/>
<path d="M6594 4249 c-3 -6 -2 -15 3 -20 5 -5 9 -1 9 11 0 23 -2 24 -12 9z"/>
<path d="M6570 4216 c0 -2 8 -10 18 -17 15 -13 16 -12 3 4 -13 16 -21 21 -21
13z"/>
<path d="M6546 4165 c-11 -8 -15 -15 -9 -15 6 0 16 7 23 15 16 19 11 19 -14 0z"/>
<path d="M6500 4146 c0 -2 8 -10 18 -17 15 -13 16 -12 3 4 -13 16 -21 21 -21
13z"/>
<path d="M6519 4093 c-13 -16 -12 -17 4 -4 9 7 17 15 17 17 0 8 -8 3 -21 -13z"/>
<path d="M6555 4102 c3 -3 -3 -15 -12 -26 -13 -15 -10 -14 10 3 32 29 31 28
12 28 -8 0 -13 -3 -10 -5z"/>
<path d="M6466 4078 c3 -5 9 -7 12 -4 3 3 12 0 21 -6 13 -10 14 -10 4 2 -15
16 -46 23 -37 8z"/>
<path d="M6436 4033 c-6 -14 -5 -15 5 -6 7 7 10 15 7 18 -3 3 -9 -2 -12 -12z"/>
<path d="M6430 3975 c5 -6 7 -24 4 -40 -3 -16 -2 -26 2 -22 14 13 12 74 -2 74
-9 0 -11 -4 -4 -12z"/>
<path d="M6470 3976 c7 -7 13 -7 20 0 6 6 3 10 -10 10 -13 0 -16 -4 -10 -10z"/>
<path d="M6471 3947 c-8 -10 -7 -14 2 -14 8 0 14 6 14 14 0 7 -1 13 -2 13 -2
0 -8 -6 -14 -13z"/>
<path d="M6430 3897 c0 -2 6 -10 14 -16 11 -9 16 -9 22 1 4 7 4 10 -1 6 -4 -4
-14 -3 -22 3 -7 6 -13 9 -13 6z"/>
<path d="M6433 3832 c2 -12 6 -24 10 -28 3 -4 4 4 2 16 -6 30 -16 40 -12 12z"/>
<path d="M6390 3836 c0 -2 8 -10 18 -17 15 -13 16 -12 3 4 -13 16 -21 21 -21
13z"/>
<path d="M6336 3753 c-6 -14 -5 -15 5 -6 7 7 10 15 7 18 -3 3 -9 -2 -12 -12z"/>
<path d="M6386 3698 c3 -5 10 -6 15 -3 13 9 11 12 -6 12 -8 0 -12 -4 -9 -9z"/>
<path d="M6337 3690 c7 -8 20 -15 29 -16 9 -1 13 1 9 4 -4 4 -10 7 -13 7 -4 0
-14 4 -22 9 -12 7 -13 6 -3 -4z"/>
<path d="M6284 3642 c4 -3 14 -7 22 -8 9 -1 13 0 10 4 -4 3 -14 7 -22 8 -9 1
-13 0 -10 -4z"/>
<path d="M6315 3602 c3 -3 -1 -12 -7 -21 -8 -10 -4 -9 10 3 26 23 26 23 7 23
-8 0 -13 -3 -10 -5z"/>
<path d="M6190 3556 c0 -2 8 -10 18 -17 15 -13 16 -12 3 4 -13 16 -21 21 -21
13z"/>
<path d="M6254 3526 c1 -8 5 -18 8 -22 4 -3 5 1 4 10 -1 8 -5 18 -8 22 -4 3
-5 -1 -4 -10z"/>
<path d="M6173 3515 c0 -8 4 -12 9 -9 4 3 8 9 8 15 0 5 -4 9 -8 9 -5 0 -9 -7
-9 -15z"/>
<path d="M6195 3490 c-4 -6 -11 -7 -17 -4 -7 4 -8 2 -4 -5 6 -9 11 -9 22 0 14
11 18 19 10 19 -3 0 -8 -5 -11 -10z"/>
<path d="M6230 3456 c7 -7 13 -7 20 0 6 6 3 10 -10 10 -13 0 -16 -4 -10 -10z"/>
<path d="M6135 3449 c-4 -6 -5 -12 -2 -15 2 -3 7 2 10 11 7 17 1 20 -8 4z"/>
<path d="M6176 3447 c3 -10 9 -15 12 -12 3 3 0 11 -7 18 -10 9 -11 8 -5 -6z"/>
<path d="M6143 3405 c17 -19 17 -19 35 0 16 18 16 18 0 6 -15 -11 -21 -11 -35
0 -17 12 -17 12 0 -6z"/>
<path d="M6099 3393 c-13 -16 -12 -17 4 -4 9 7 17 15 17 17 0 8 -8 3 -21 -13z"/>
<path d="M6086 3361 c-3 -4 6 -7 19 -7 14 0 22 2 19 5 -8 8 -34 10 -38 2z"/>
<path d="M1126 2882 c-3 -5 1 -9 9 -9 8 0 12 4 9 9 -3 4 -7 8 -9 8 -2 0 -6 -4
-9 -8z"/>
<path d="M5392 2611 c7 -9 13 -18 15 -20 1 -2 1 5 0 16 0 11 -7 20 -14 20 -10
0 -10 -4 -1 -16z"/>
<path d="M5320 2575 c-8 -9 -21 -13 -34 -10 -20 6 -20 5 -2 -6 15 -9 22 -7 39
10 12 11 19 21 15 21 -3 0 -11 -7 -18 -15z"/>
<path d="M1556 2518 c3 -5 10 -6 15 -3 13 9 11 12 -6 12 -8 0 -12 -4 -9 -9z"/>
<path d="M5213 2513 c0 -10 4 -10 16 -1 9 7 18 13 20 15 2 1 -5 1 -16 0 -11 0
-20 -7 -20 -14z"/>
<path d="M5270 2496 c7 -7 13 -7 20 0 6 6 3 10 -10 10 -13 0 -16 -4 -10 -10z"/>
<path d="M5134 2489 c-3 -6 -2 -15 3 -20 5 -5 9 -1 9 11 0 23 -2 24 -12 9z"/>
<path d="M5210 2481 c0 -6 4 -13 10 -16 6 -3 7 1 4 9 -7 18 -14 21 -14 7z"/>
<path d="M1736 2433 c-6 -14 -5 -15 5 -6 7 7 10 15 7 18 -3 3 -9 -2 -12 -12z"/>
<path d="M4993 2427 c0 -8 6 -14 14 -14 9 0 10 4 2 14 -6 7 -12 13 -14 13 -1
0 -2 -6 -2 -13z"/>
<path d="M4956 2422 c-3 -5 1 -9 9 -9 8 0 12 4 9 9 -3 4 -7 8 -9 8 -2 0 -6 -4
-9 -8z"/>
<path d="M5030 2426 c0 -2 7 -7 16 -10 8 -3 12 -2 9 4 -6 10 -25 14 -25 6z"/>
<path d="M5106 2422 c-2 -4 4 -8 14 -8 10 0 16 4 14 8 -3 4 -9 8 -14 8 -5 0
-11 -4 -14 -8z"/>
<path d="M1839 2398 c-6 -23 -7 -48 -1 -52 4 -2 7 9 7 25 1 24 -2 38 -6 27z"/>
<path d="M1799 2373 c-13 -16 -12 -17 4 -4 9 7 17 15 17 17 0 8 -8 3 -21 -13z"/>
<path d="M4913 2383 c4 -3 1 -13 -6 -22 -11 -14 -10 -14 5 -2 16 12 16 31 1
31 -4 0 -3 -3 0 -7z"/>
<path d="M4974 2369 c-3 -6 -2 -15 3 -20 5 -5 9 -1 9 11 0 23 -2 24 -12 9z"/>
<path d="M5040 2366 c0 -2 8 -10 18 -17 15 -13 16 -12 3 4 -13 16 -21 21 -21
13z"/>
<path d="M1869 2343 c-13 -16 -12 -17 4 -4 9 7 17 15 17 17 0 8 -8 3 -21 -13z"/>
<path d="M4809 2323 c-13 -16 -12 -17 4 -4 9 7 17 15 17 17 0 8 -8 3 -21 -13z"/>
<path d="M4943 2324 c9 -11 15 -24 12 -27 -3 -4 -2 -5 2 -2 4 3 8 13 9 21 1 9
0 13 -3 10 -4 -3 -13 0 -22 6 -12 10 -12 7 2 -8z"/>
<path d="M4831 2307 c-13 -21 -12 -21 5 -5 10 10 16 20 13 22 -3 3 -11 -5 -18
-17z"/>
<path d="M1953 2293 c0 -9 4 -10 14 -2 7 6 13 12 13 14 0 1 -6 2 -13 2 -8 0
-14 -6 -14 -14z"/>
<path d="M4740 2306 c0 -2 8 -10 18 -17 15 -13 16 -12 3 4 -13 16 -21 21 -21
13z"/>
<path d="M2051 2287 c-8 -10 -7 -14 2 -14 8 0 14 6 14 14 0 7 -1 13 -2 13 -2
0 -8 -6 -14 -13z"/>
<path d="M4686 2285 c-18 -14 -18 -14 1 -12 11 0 20 7 20 14 0 7 -1 13 -1 13
-1 0 -9 -7 -20 -15z"/>
<path d="M4799 2298 c-5 -18 -6 -38 -1 -34 7 8 12 36 6 36 -2 0 -4 -1 -5 -2z"/>
<path d="M4874 2266 c1 -8 5 -18 8 -22 4 -3 5 1 4 10 -1 8 -5 18 -8 22 -4 3
-5 -1 -4 -10z"/>
<path d="M4759 2253 c-13 -16 -12 -17 4 -4 9 7 17 15 17 17 0 8 -8 3 -21 -13z"/>
<path d="M2150 2257 c0 -2 6 -10 14 -16 11 -9 16 -9 22 1 4 7 4 10 -1 6 -4 -4
-14 -3 -22 3 -7 6 -13 9 -13 6z"/>
<path d="M4616 2247 c3 -10 9 -15 12 -12 3 3 0 11 -7 18 -10 9 -11 8 -5 -6z"/>
<path d="M4556 2241 c-3 -5 2 -15 12 -22 15 -12 16 -12 5 2 -7 9 -10 19 -6 22
3 4 4 7 0 7 -3 0 -8 -4 -11 -9z"/>
<path d="M4730 2241 c0 -6 4 -13 10 -16 6 -3 7 1 4 9 -7 18 -14 21 -14 7z"/>
<path d="M2135 2211 c-3 -5 -2 -12 3 -15 5 -3 9 1 9 9 0 17 -3 19 -12 6z"/>
<path d="M2173 2206 c0 -8 5 -14 11 -13 6 1 10 -4 8 -11 -1 -8 2 -11 8 -7 8 5
6 13 -6 26 -21 23 -21 23 -21 5z"/>
<path d="M2270 2216 c0 -2 8 -10 18 -17 15 -13 16 -12 3 4 -13 16 -21 21 -21
13z"/>
<path d="M4606 2205 c-18 -14 -18 -14 1 -12 11 0 20 7 20 14 0 7 -1 13 -1 13
-1 0 -9 -7 -20 -15z"/>
<path d="M2240 2206 c0 -2 8 -10 18 -17 15 -13 16 -12 3 4 -13 16 -21 21 -21
13z"/>
<path d="M4374 2166 c1 -8 5 -18 8 -22 4 -3 5 1 4 10 -1 8 -5 18 -8 22 -4 3
-5 -1 -4 -10z"/>
<path d="M2339 2153 c-12 -16 -12 -17 2 -6 9 7 19 10 22 6 4 -3 7 -1 7 5 0 17
-16 15 -31 -5z"/>
<path d="M4580 2160 c-9 -6 -10 -10 -3 -10 6 0 15 5 18 10 8 12 4 12 -15 0z"/>
<path d="M4279 2133 c-13 -16 -12 -17 4 -4 9 7 17 15 17 17 0 8 -8 3 -21 -13z"/>
<path d="M4515 2142 c3 -3 0 -10 -5 -17 -7 -8 -5 -12 5 -12 8 0 13 3 10 5 -3
3 0 10 5 17 7 8 5 12 -5 12 -8 0 -13 -3 -10 -5z"/>
<path d="M4414 2129 c-3 -6 -2 -15 3 -20 5 -5 9 -1 9 11 0 23 -2 24 -12 9z"/>
<path d="M4553 2125 c0 -8 4 -12 9 -9 5 3 6 10 3 15 -9 13 -12 11 -12 -6z"/>
<path d="M2510 2125 c0 -7 30 -13 34 -7 3 4 -4 9 -15 9 -10 1 -19 0 -19 -2z"/>
<path d="M2573 2115 c0 -8 4 -12 9 -9 5 3 6 10 3 15 -9 13 -12 11 -12 -6z"/>
<path d="M4219 2113 c-13 -16 -12 -17 4 -4 16 13 21 21 13 21 -2 0 -10 -8 -17
-17z"/>
<path d="M4333 2113 c0 -10 4 -10 16 -1 9 7 18 13 20 15 2 1 -5 1 -16 0 -11 0
-20 -7 -20 -14z"/>
<path d="M2410 2099 c0 -5 5 -7 10 -4 6 3 10 8 10 11 0 2 -4 4 -10 4 -5 0 -10
-5 -10 -11z"/>
<path d="M2479 2093 c-13 -16 -12 -17 4 -4 9 7 17 15 17 17 0 8 -8 3 -21 -13z"/>
<path d="M2599 2093 c-13 -16 -12 -17 4 -4 16 13 21 21 13 21 -2 0 -10 -8 -17
-17z"/>
<path d="M4260 2106 c0 -2 8 -10 18 -17 15 -13 16 -12 3 4 -13 16 -21 21 -21
13z"/>
<path d="M4394 2093 c16 -20 36 -23 36 -6 0 4 -3 3 -7 0 -3 -4 -16 1 -27 10
-21 18 -21 18 -2 -4z"/>
<path d="M2534 2089 c-3 -6 -2 -15 3 -20 5 -5 9 -1 9 11 0 23 -2 24 -12 9z"/>
<path d="M2693 2085 c0 -8 3 -13 5 -10 3 3 15 -3 26 -12 15 -14 18 -14 8 -2
-6 9 -8 20 -4 25 4 5 3 6 -2 2 -5 -4 -14 -3 -21 2 -8 7 -12 5 -12 -5z"/>
<path d="M4097 2093 c-10 -9 -9 -23 1 -23 5 0 9 7 9 15 0 17 -1 18 -10 8z"/>
<path d="M2633 2076 c-3 -6 -3 -8 2 -4 4 4 13 3 20 -2 8 -7 12 -5 12 3 0 16
-25 18 -34 3z"/>
<path d="M4210 2081 c0 -6 4 -13 10 -16 6 -3 7 1 4 9 -7 18 -14 21 -14 7z"/>
<path d="M4296 2073 c-6 -14 -5 -15 5 -6 7 7 10 15 7 18 -3 3 -9 -2 -12 -12z"/>
<path d="M4326 2082 c-3 -5 1 -9 9 -9 8 0 12 4 9 9 -3 4 -7 8 -9 8 -2 0 -6 -4
-9 -8z"/>
<path d="M3950 2076 c0 -2 8 -10 18 -17 15 -13 16 -12 3 4 -13 16 -21 21 -21
13z"/>
<path d="M2865 2060 c-3 -6 1 -7 9 -4 18 7 21 14 7 14 -6 0 -13 -4 -16 -10z"/>
<path d="M3879 2053 c-13 -16 -12 -17 4 -4 16 13 21 21 13 21 -2 0 -10 -8 -17
-17z"/>
<path d="M3914 2035 c0 -19 3 -32 5 -29 8 7 9 54 2 59 -4 2 -7 -12 -7 -30z"/>
<path d="M4060 2066 c0 -2 8 -10 18 -17 15 -13 16 -12 3 4 -13 16 -21 21 -21
13z"/>
<path d="M4119 2053 c-13 -16 -12 -17 4 -4 16 13 21 21 13 21 -2 0 -10 -8 -17
-17z"/>
<path d="M2693 2045 c0 -8 4 -15 9 -15 4 0 8 4 8 9 0 6 -4 12 -8 15 -5 3 -9
-1 -9 -9z"/>
<path d="M2766 2045 c-18 -14 -18 -14 1 -12 11 0 20 7 20 14 0 7 -1 13 -1 13
-1 0 -9 -7 -20 -15z"/>
<path d="M2880 2045 c0 -2 6 -8 13 -14 10 -8 14 -7 14 2 0 8 -6 14 -14 14 -7
0 -13 -1 -13 -2z"/>
<path d="M2939 2033 c-13 -16 -12 -17 4 -4 14 11 20 11 35 0 15 -13 16 -12 3
4 -7 9 -17 17 -21 17 -4 0 -14 -8 -21 -17z"/>
<path d="M3019 2033 c-12 -16 -12 -17 2 -6 9 7 20 9 24 5 5 -4 5 -1 1 6 -9 16
-11 15 -27 -5z"/>
<path d="M3789 2037 c6 -8 9 -16 6 -19 -3 -2 2 -5 10 -5 13 0 13 3 -2 19 -19
21 -31 25 -14 5z"/>
<path d="M4000 2040 c-9 -6 -10 -10 -3 -10 6 0 15 5 18 10 8 12 4 12 -15 0z"/>
<path d="M4033 2032 c-8 -14 -8 -19 1 -19 7 0 13 9 13 19 1 10 1 18 0 18 -1 0
-7 -8 -14 -18z"/>
<path d="M4179 2032 c-12 -15 -12 -16 2 -5 8 7 26 11 39 8 12 -2 20 -1 16 2
-14 14 -45 12 -57 -5z"/>
<path d="M3679 2038 c-5 -18 -6 -38 -1 -34 7 8 12 36 6 36 -2 0 -4 -1 -5 -2z"/>
<path d="M3709 2023 c-13 -16 -12 -17 4 -4 16 13 21 21 13 21 -2 0 -10 -8 -17
-17z"/>
<path d="M3833 2025 c0 -8 10 -23 21 -32 21 -18 21 -18 4 2 -9 11 -17 24 -16
28 0 5 -2 11 -4 13 -3 2 -5 -3 -5 -11z"/>
<path d="M3870 2016 c7 -7 13 -7 20 0 6 6 3 10 -10 10 -13 0 -16 -4 -10 -10z"/>
<path d="M4114 2013 c16 -20 36 -23 36 -6 0 4 -3 3 -7 0 -3 -4 -16 1 -27 10
-21 18 -21 18 -2 -4z"/>
<path d="M2813 2005 c0 -8 4 -12 9 -9 5 3 6 10 3 15 -9 13 -12 11 -12 -6z"/>
<path d="M3055 2010 c-4 -6 -11 -7 -17 -4 -7 4 -8 2 -4 -5 6 -9 11 -9 22 0 14
11 18 19 10 19 -3 0 -8 -5 -11 -10z"/>
<path d="M3170 2016 c0 -2 8 -10 18 -17 15 -13 16 -12 3 4 -13 16 -21 21 -21
13z"/>
<path d="M3294 2006 c1 -8 5 -18 8 -22 4 -3 5 1 4 10 -1 8 -5 18 -8 22 -4 3
-5 -1 -4 -10z"/>
<path d="M3354 2000 c0 -13 4 -16 10 -10 7 7 7 13 0 20 -6 6 -10 3 -10 -10z"/>
<path d="M2945 1999 c3 -4 13 -6 23 -4 9 1 26 -5 37 -13 19 -16 19 -16 3 3
-17 18 -73 31 -63 14z"/>
<path d="M3215 1999 c-3 -4 2 -6 10 -5 21 3 28 13 10 13 -9 0 -18 -4 -20 -8z"/>
<path d="M3730 2001 c0 -6 4 -12 8 -15 5 -3 9 1 9 9 0 8 -4 15 -9 15 -4 0 -8
-4 -8 -9z"/>
<path d="M3954 1986 c1 -8 5 -18 8 -22 4 -3 5 1 4 10 -1 8 -5 18 -8 22 -4 3
-5 -1 -4 -10z"/>
<path d="M3440 1975 c-7 -8 -16 -13 -20 -10 -5 3 -11 2 -14 -3 -2 -4 6 -8 19
-8 14 0 22 2 20 5 -3 2 0 10 6 18 6 7 9 13 6 13 -2 0 -10 -7 -17 -15z"/>
<path d="M3473 1967 c-1 -11 -1 -18 0 -16 2 2 8 11 15 20 9 12 9 16 -1 16 -7
0 -14 -9 -14 -20z"/>
<path d="M3590 1986 c0 -2 7 -7 16 -10 8 -3 12 -2 9 4 -6 10 -25 14 -25 6z"/>
<path d="M3904 1982 c4 -3 14 -7 22 -8 9 -1 13 0 10 4 -4 3 -14 7 -22 8 -9 1
-13 0 -10 -4z"/>
<path d="M3986 1978 c3 -5 10 -6 15 -3 13 9 11 12 -6 12 -8 0 -12 -4 -9 -9z"/>
<path d="M3210 1976 c0 -2 8 -10 18 -17 15 -13 16 -12 3 4 -13 16 -21 21 -21
13z"/>
<path d="M3530 1976 c0 -2 8 -10 18 -17 15 -13 16 -12 3 4 -13 16 -21 21 -21
13z"/>
<path d="M3809 1963 c-13 -16 -12 -17 4 -4 16 13 21 21 13 21 -2 0 -10 -8 -17
-17z"/>
<path d="M3159 1953 c-12 -16 -12 -17 2 -6 9 7 20 9 24 5 5 -4 5 -1 1 6 -9 16
-11 15 -27 -5z"/>
<path d="M3259 1953 c-12 -16 -12 -17 2 -6 9 7 19 10 22 6 4 -3 7 -1 7 5 0 17
-16 15 -31 -5z"/>
<path d="M3579 1953 c-13 -16 -12 -17 4 -4 16 13 21 21 13 21 -2 0 -10 -8 -17
-17z"/>
<path d="M3694 1953 c1 -7 6 -16 11 -20 4 -4 5 -3 1 4 -3 6 2 16 11 22 16 9
16 10 -3 8 -12 0 -21 -7 -20 -14z"/>
<path d="M3760 1966 c0 -2 8 -10 18 -17 15 -13 16 -12 3 4 -13 16 -21 21 -21
13z"/>
<path d="M3516 1947 c3 -10 9 -15 12 -12 3 3 0 11 -7 18 -10 9 -11 8 -5 -6z"/>
<path d="M7894 1846 c1 -8 5 -18 8 -22 4 -3 5 1 4 10 -1 8 -5 18 -8 22 -4 3
-5 -1 -4 -10z"/>
<path d="M7944 1822 c4 -3 14 -7 22 -8 9 -1 13 0 10 4 -4 3 -14 7 -22 8 -9 1
-13 0 -10 -4z"/>
<path d="M7840 1774 c-11 -12 -10 -18 5 -32 18 -16 18 -16 6 1 -11 14 -11 20
-1 32 7 8 10 15 7 15 -2 0 -10 -7 -17 -16z"/>
<path d="M7895 1769 c-4 -6 -5 -12 -2 -15 2 -3 7 2 10 11 7 17 1 20 -8 4z"/>
<path d="M7784 1762 c4 -3 14 -7 22 -8 9 -1 13 0 10 4 -4 3 -14 7 -22 8 -9 1
-13 0 -10 -4z"/>
<path d="M7891 1727 c-8 -10 -7 -14 2 -14 8 0 14 6 14 14 0 7 -1 13 -2 13 -2
0 -8 -6 -14 -13z"/>
<path d="M7693 1272 c-238 -240 -482 -487 -543 -547 l-111 -111 72 -72 c40
-40 76 -72 80 -72 5 0 5 -7 2 -17 -4 -11 -3 -14 5 -9 15 9 146 -119 137 -133
-3 -6 0 -8 8 -5 8 3 18 0 23 -7 5 -8 3 -10 -6 -4 -8 5 -11 4 -6 -3 4 -6 13 -9
21 -6 7 3 24 -1 37 -9 13 -8 38 -18 56 -22 17 -4 32 -11 32 -15 0 -5 7 -6 17
-3 12 5 14 3 8 -8 -8 -12 -6 -12 8 0 15 12 21 9 19 -10 -1 -3 5 -6 13 -6 7 0
11 5 9 11 -3 7 21 11 71 11 41 -1 75 2 75 5 0 10 91 31 102 24 7 -5 8 -2 3 6
-6 10 -4 12 8 7 10 -3 17 -3 17 1 0 14 69 54 81 46 8 -4 9 -3 5 4 -4 6 2 20
14 32 11 11 20 18 20 16 0 -3 13 7 28 22 16 15 28 30 28 33 -1 9 63 67 68 62
2 -3 7 5 11 16 6 19 17 26 38 22 5 -1 6 3 3 8 -10 16 14 23 32 10 13 -11 12
-8 -2 9 -18 21 -13 28 17 23 5 -1 6 3 3 8 -4 5 2 14 11 20 10 6 14 11 9 11 -6
0 4 11 22 23 17 13 28 28 24 32 -4 5 1 5 10 2 11 -4 17 -2 15 6 -1 7 4 11 11
9 8 -1 11 2 8 7 -4 5 4 17 16 25 12 9 18 16 13 16 -6 1 1 7 15 15 14 8 22 14
18 15 -4 0 3 10 15 23 12 13 25 22 28 20 3 -1 11 9 18 23 7 17 17 24 27 20 8
-3 13 -2 10 3 -8 12 53 71 73 72 12 0 12 2 3 6 -9 3 -2 13 19 29 18 13 30 24
26 24 -4 0 3 10 14 21 19 19 25 20 43 9 19 -12 20 -12 8 3 -15 18 -7 41 10 31
6 -4 8 -2 4 4 -3 6 1 17 9 25 8 9 15 30 15 47 0 27 -33 63 -276 305 -152 151
-279 275 -283 274 -3 0 -201 -197 -438 -437z"/>
<path d="M7793 1647 c-1 -11 -1 -18 0 -16 2 2 8 11 15 20 9 12 9 16 -1 16 -7
0 -14 -9 -14 -20z"/>
<path d="M7726 1638 c4 -5 9 -7 12 -4 3 3 15 -2 26 -11 21 -18 21 -18 3 3 -16
20 -52 30 -41 12z"/>
<path d="M7730 1606 c0 -2 7 -7 16 -10 8 -3 12 -2 9 4 -6 10 -25 14 -25 6z"/>
<path d="M7646 1565 c-18 -14 -18 -14 1 -12 11 0 20 7 20 14 0 7 -1 13 -1 13
-1 0 -9 -7 -20 -15z"/>
<path d="M7579 1473 c-13 -17 -13 -17 6 -3 11 8 22 16 24 17 2 2 0 3 -6 3 -6
0 -17 -8 -24 -17z"/>
<path d="M7601 1456 c-9 -11 -9 -16 1 -22 7 -4 10 -4 6 1 -4 4 -3 14 3 22 6 7
9 13 6 13 -2 0 -10 -6 -16 -14z"/>
<path d="M7570 1416 c0 -2 8 -10 18 -17 15 -13 16 -12 3 4 -13 16 -21 21 -21
13z"/>
<path d="M7484 1402 c4 -3 14 -7 22 -8 9 -1 13 0 10 4 -4 3 -14 7 -22 8 -9 1
-13 0 -10 -4z"/>
<path d="M7536 1358 c3 -5 10 -6 15 -3 13 9 11 12 -6 12 -8 0 -12 -4 -9 -9z"/>
<path d="M7466 1318 c3 -5 10 -6 15 -3 13 9 11 12 -6 12 -8 0 -12 -4 -9 -9z"/>
<path d="M7433 1275 c0 -8 4 -12 9 -9 5 3 6 10 3 15 -9 13 -12 11 -12 -6z"/>
<path d="M6355 1271 c-3 -5 -2 -12 3 -15 5 -3 9 1 9 9 0 17 -3 19 -12 6z"/>
<path d="M7345 1259 c-3 -4 2 -6 10 -5 21 3 28 13 10 13 -9 0 -18 -4 -20 -8z"/>
<path d="M7393 1247 c-1 -11 -1 -18 0 -16 2 2 8 11 15 20 9 12 9 16 -1 16 -7
0 -14 -9 -14 -20z"/>
<path d="M7265 1179 c-3 -4 2 -6 10 -5 21 3 28 13 10 13 -9 0 -18 -4 -20 -8z"/>
<path d="M7349 1177 c6 -8 7 -18 3 -22 -4 -5 -1 -5 6 -1 10 6 10 11 1 22 -6 8
-14 14 -16 14 -3 0 0 -6 6 -13z"/>
<path d="M7191 1107 c-13 -21 -12 -21 5 -5 10 10 16 20 13 22 -3 3 -11 -5 -18
-17z"/>
<path d="M7214 1089 c-3 -6 -2 -15 3 -20 5 -5 9 -1 9 11 0 23 -2 24 -12 9z"/>
<path d="M7095 1050 c-4 -6 -11 -8 -16 -5 -5 4 -9 1 -9 -4 0 -16 16 -13 30 4
7 8 10 15 7 15 -3 0 -9 -5 -12 -10z"/>
<path d="M7174 1040 c0 -13 4 -16 10 -10 7 7 7 13 0 20 -6 6 -10 3 -10 -10z"/>
<path d="M7114 1038 c-4 -7 -4 -10 1 -6 4 4 15 2 24 -5 14 -11 14 -10 2 6 -16
20 -18 21 -27 5z"/>
<path d="M8710 1038 c0 -6 3 -8 7 -5 3 4 13 1 22 -6 14 -11 14 -10 2 6 -15 20
-31 22 -31 5z"/>
<path d="M8620 986 c0 -2 8 -10 18 -17 15 -13 16 -12 3 4 -13 16 -21 21 -21
13z"/>
<path d="M7014 960 c0 -13 4 -16 10 -10 7 7 7 13 0 20 -6 6 -10 3 -10 -10z"/>
<path d="M8579 953 c-12 -16 -12 -17 2 -6 9 7 19 10 22 6 4 -3 7 -1 7 5 0 17
-16 15 -31 -5z"/>
<path d="M7043 938 c-11 -19 -13 -39 -1 -32 5 3 7 9 4 12 -3 3 -1 11 5 19 6 7
9 13 6 13 -3 0 -9 -6 -14 -12z"/>
<path d="M7076 942 c-2 -4 -1 -14 4 -22 7 -11 9 -9 7 8 -1 24 -3 26 -11 14z"/>
<path d="M7109 937 c6 -8 7 -18 3 -22 -4 -5 -1 -5 6 -1 10 6 10 11 1 22 -6 8
-14 14 -16 14 -3 0 0 -6 6 -13z"/>
<path d="M8706 938 c3 -5 10 -6 15 -3 13 9 11 12 -6 12 -8 0 -12 -4 -9 -9z"/>
<path d="M8595 930 c-4 -6 -11 -7 -17 -4 -7 4 -8 2 -4 -5 6 -9 11 -9 22 0 14
11 18 19 10 19 -3 0 -8 -5 -11 -10z"/>
<path d="M6999 893 c-13 -16 -12 -17 4 -4 9 7 17 15 17 17 0 8 -8 3 -21 -13z"/>
<path d="M7046 885 c-11 -8 -15 -15 -9 -15 6 0 16 7 23 15 16 19 11 19 -14 0z"/>
<path d="M8576 887 c3 -10 9 -15 12 -12 3 3 0 11 -7 18 -10 9 -11 8 -5 -6z"/>
<path d="M6906 882 c-3 -5 1 -9 9 -9 8 0 12 4 9 9 -3 4 -7 8 -9 8 -2 0 -6 -4
-9 -8z"/>
<path d="M6945 859 c-3 -4 2 -6 10 -5 21 3 28 13 10 13 -9 0 -18 -4 -20 -8z"/>
<path d="M6894 849 c-3 -6 -2 -15 3 -20 5 -5 9 -1 9 11 0 23 -2 24 -12 9z"/>
<path d="M7010 856 c0 -2 8 -10 18 -17 15 -13 16 -12 3 4 -13 16 -21 21 -21
13z"/>
<path d="M8543 845 c17 -19 17 -19 35 0 16 18 16 18 0 6 -15 -11 -21 -11 -35
0 -17 12 -17 12 0 -6z"/>
<path d="M6993 831 c0 -11 5 -18 9 -15 4 3 5 11 1 19 -7 21 -12 19 -10 -4z"/>
<path d="M8440 846 c0 -2 8 -10 18 -17 15 -13 16 -12 3 4 -13 16 -21 21 -21
13z"/>
<path d="M8513 833 c0 -11 7 -20 14 -20 10 0 10 4 1 16 -7 9 -13 18 -15 20 -1
2 -1 -5 0 -16z"/>
<path d="M8436 807 c3 -10 9 -15 12 -12 3 3 0 11 -7 18 -10 9 -11 8 -5 -6z"/>
<path d="M8546 778 c3 -5 10 -6 15 -3 13 9 11 12 -6 12 -8 0 -12 -4 -9 -9z"/>
<path d="M6929 763 c-13 -16 -12 -17 4 -4 9 7 17 15 17 17 0 8 -8 3 -21 -13z"/>
<path d="M8449 763 c-13 -16 -12 -17 4 -4 16 13 21 21 13 21 -2 0 -10 -8 -17
-17z"/>
<path d="M6871 767 c2 -1 13 -9 24 -17 19 -14 19 -14 6 3 -7 9 -18 17 -24 17
-6 0 -8 -1 -6 -3z"/>
<path d="M8379 753 c-13 -16 -12 -17 4 -4 14 11 20 11 35 0 15 -13 16 -12 3 4
-7 9 -17 17 -21 17 -4 0 -14 -8 -21 -17z"/>
<path d="M8475 749 c-4 -6 -5 -12 -2 -15 2 -3 7 2 10 11 7 17 1 20 -8 4z"/>
<path d="M8416 713 c-6 -14 -5 -15 5 -6 7 7 10 15 7 18 -3 3 -9 -2 -12 -12z"/>
<path d="M8366 685 c-18 -14 -18 -14 1 -12 11 0 20 7 20 14 0 7 -1 13 -1 13
-1 0 -9 -7 -20 -15z"/>
<path d="M8330 656 c0 -2 8 -10 18 -17 15 -13 16 -12 3 4 -13 16 -21 21 -21
13z"/>
<path d="M8379 658 c-5 -18 -6 -38 -1 -34 7 8 12 36 6 36 -2 0 -4 -1 -5 -2z"/>
<path d="M8253 593 c0 -10 4 -10 16 -1 9 7 18 13 20 15 2 1 -5 1 -16 0 -11 0
-20 -7 -20 -14z"/>
<path d="M8280 575 c-7 -9 -11 -17 -9 -20 3 -2 10 5 17 15 14 24 10 26 -8 5z"/>
<path d="M8201 516 c-9 -11 -9 -16 1 -22 7 -4 10 -4 6 1 -4 4 -3 14 3 22 6 7
9 13 6 13 -2 0 -10 -6 -16 -14z"/>
<path d="M8125 479 c-3 -4 2 -6 10 -5 21 3 28 13 10 13 -9 0 -18 -4 -20 -8z"/>
<path d="M8193 463 c4 -3 1 -13 -6 -22 -11 -14 -10 -14 5 -2 16 12 16 31 1 31
-4 0 -3 -3 0 -7z"/>
<path d="M8226 458 c3 -5 10 -6 15 -3 13 9 11 12 -6 12 -8 0 -12 -4 -9 -9z"/>
<path d="M8129 443 c-13 -16 -12 -17 4 -4 9 7 17 15 17 17 0 8 -8 3 -21 -13z"/>
<path d="M8059 433 c-13 -16 -12 -17 4 -4 14 11 20 11 35 0 15 -13 16 -12 3 4
-7 9 -17 17 -21 17 -4 0 -14 -8 -21 -17z"/>
<path d="M8149 423 c-13 -16 -12 -17 4 -4 9 7 17 15 17 17 0 8 -8 3 -21 -13z"/>
<path d="M8016 393 c-6 -14 -5 -15 5 -6 7 7 10 15 7 18 -3 3 -9 -2 -12 -12z"/>
<path d="M8096 393 c-6 -14 -5 -15 5 -6 7 7 10 15 7 18 -3 3 -9 -2 -12 -12z"/>
<path d="M8115 370 c-4 -6 -11 -7 -17 -4 -7 4 -8 2 -4 -5 6 -9 11 -9 22 0 14
11 18 19 10 19 -3 0 -8 -5 -11 -10z"/>
<path d="M8031 367 c2 -2 11 -8 20 -15 12 -9 16 -9 16 1 0 7 -9 14 -20 14 -11
1 -18 1 -16 0z"/>
<path d="M7987 339 c7 -7 15 -10 18 -7 3 3 -2 9 -12 12 -14 6 -15 5 -6 -5z"/>
<path d="M8033 334 c16 -20 52 -30 41 -12 -4 5 -9 7 -12 4 -3 -3 -15 2 -26 11
-21 18 -21 18 -3 -3z"/>
<path d="M7983 285 c17 -19 17 -19 35 0 16 18 16 18 0 6 -15 -11 -21 -11 -35
0 -17 12 -17 12 0 -6z"/>
<path d="M7871 267 c-13 -21 -12 -21 5 -5 10 10 16 20 13 22 -3 3 -11 -5 -18
-17z"/>
<path d="M7793 245 c0 -8 3 -13 5 -10 3 3 10 0 17 -5 8 -7 12 -5 12 5 0 8 -3
13 -5 10 -3 -3 -10 0 -17 5 -8 7 -12 5 -12 -5z"/>
<path d="M7890 241 c0 -6 4 -12 8 -15 5 -3 9 1 9 9 0 8 -4 15 -9 15 -4 0 -8
-4 -8 -9z"/>
<path d="M7416 221 c-3 -4 6 -7 19 -7 14 0 22 2 19 5 -8 8 -34 10 -38 2z"/>
<path d="M7955 221 c-3 -5 -2 -12 3 -15 5 -3 9 1 9 9 0 17 -3 19 -12 6z"/>
<path d="M7986 218 c3 -5 10 -6 15 -3 13 9 11 12 -6 12 -8 0 -12 -4 -9 -9z"/>
<path d="M7491 207 c-8 -10 -7 -14 2 -14 8 0 14 6 14 14 0 7 -1 13 -2 13 -2 0
-8 -6 -14 -13z"/>
<path d="M7605 200 c10 -11 20 -20 23 -20 3 0 -3 9 -13 20 -10 11 -20 20 -23
20 -3 0 3 -9 13 -20z"/>
<path d="M7690 216 c0 -2 8 -10 18 -17 15 -13 16 -12 3 4 -13 16 -21 21 -21
13z"/>
<path d="M7791 207 c2 -2 11 -8 20 -15 12 -9 16 -9 16 1 0 7 -9 14 -20 14 -11
1 -18 1 -16 0z"/>
<path d="M7853 193 c0 -10 4 -10 16 -1 9 7 18 13 20 15 2 1 -5 1 -16 0 -11 0
-20 -7 -20 -14z"/>
<path d="M7670 196 c0 -2 8 -10 18 -17 15 -13 16 -12 3 4 -13 16 -21 21 -21
13z"/>
<path d="M7560 175 c-6 -8 -10 -19 -8 -24 1 -6 8 1 15 14 13 28 11 31 -7 10z"/>
<path d="M7759 173 c-13 -16 -12 -17 4 -4 9 7 17 15 17 17 0 8 -8 3 -21 -13z"/>
<path d="M7907 179 c7 -7 15 -10 18 -7 3 3 -2 9 -12 12 -14 6 -15 5 -6 -5z"/>
<path d="M7875 169 c-4 -6 -5 -12 -2 -15 2 -3 7 2 10 11 7 17 1 20 -8 4z"/>
<path d="M7777 151 c-10 -14 -10 -14 4 -4 9 7 18 10 21 7 3 -3 8 -1 12 4 9 16
-24 9 -37 -7z"/>
</g>
</svg>
